<svg width="480" height="336" viewBox="0 0 480 336" fill="none" xmlns="http://www.w3.org/2000/svg">
<g clip-path="url(#clip0)">
<path d="M23.5855 333.438C14.7616 307.086 9.94336 278.667 9.94336 249.027C9.94336 111.919 112.868 0.769165 239.83 0.769165C366.792 0.769165 469.716 111.919 469.716 249.027C469.716 278.667 464.898 307.086 456.074 333.438H23.5855Z" fill="#FCD045"/>
<path d="M71.7144 274.587H407.946V56.6833H71.7144V274.587Z" fill="#FCD045"/>
<path fill-rule="evenodd" clip-rule="evenodd" d="M123.234 55.4196V268.459H120.807V255.849L111.611 265.783L114.089 268.459H111.803L110.466 267.016L109.134 268.459H106.844L109.321 265.783L100.125 255.849V268.459H97.6982V55.4196H101.682L110.466 64.9057L119.25 55.4196H123.234ZM100.125 250.758L109.321 240.828L100.125 230.893V250.758ZM100.125 225.803L109.321 215.872L100.125 205.937V225.803ZM100.125 200.847L109.321 190.916L100.125 180.986V200.847ZM100.125 175.892L109.321 165.961L100.125 156.03V175.892ZM100.125 150.94L109.321 141.005L100.125 131.07V150.94ZM100.125 125.984L109.321 116.05L100.125 106.119V125.984ZM100.125 101.029L109.321 91.0939L100.125 81.1631V101.029ZM100.125 76.0729L109.321 66.1422L100.125 56.2075V76.0729ZM120.807 56.2075L111.611 66.1422L120.807 76.0729V56.2075ZM120.807 81.1631L111.611 91.0939L120.807 101.029V81.1631ZM120.807 106.119L111.611 116.05L120.807 125.984V106.119ZM120.807 131.07L111.611 141.005L120.807 150.94V131.07ZM120.807 156.03L111.611 165.961L120.807 175.892V156.03ZM120.807 180.986L111.611 190.916L120.807 200.847V180.986ZM120.807 205.937L111.611 215.872L120.807 225.803V205.937ZM120.807 230.893L111.611 240.828L120.807 250.758V230.893ZM100.125 78.542V78.6941L110.466 89.8613L120.807 78.6941V78.542L110.466 67.3747L100.125 78.542ZM100.125 103.498V103.65L110.466 114.817L120.807 103.65V103.498L110.466 92.3303L100.125 103.498ZM100.125 128.453V128.605L110.466 139.769L120.807 128.605V128.453L110.466 117.286L100.125 128.453ZM100.125 153.409V153.557L110.466 164.728L120.807 153.557V153.409L110.466 142.242L100.125 153.409ZM100.125 178.364V178.513L110.466 189.68L120.807 178.513V178.364L110.466 167.197L100.125 178.364ZM100.125 203.32V203.468L110.466 214.636L120.807 203.468V203.32L110.466 192.149L100.125 203.32ZM100.125 228.272V228.424L110.466 239.591L120.807 228.424V228.272L110.466 217.108L100.125 228.272ZM100.125 253.227V253.38L110.466 264.547L120.807 253.38V253.227L110.466 242.06L100.125 253.227Z" fill="#F39C3F"/>
<path fill-rule="evenodd" clip-rule="evenodd" d="M292.907 55.4196V268.459H290.48V255.849L281.28 265.783L283.758 268.459H281.471L280.139 267.016L278.802 268.459H276.516L278.994 265.783L269.794 255.849V268.459H267.371V55.4196H271.355L280.139 64.9057L288.923 55.4196H292.907ZM269.794 250.758L278.994 240.828L269.794 230.893V250.758ZM269.794 225.803L278.994 215.872L269.794 205.937V225.803ZM269.794 200.847L278.994 190.916L269.794 180.986V200.847ZM269.794 175.892L278.994 165.961L269.794 156.03V175.892ZM269.794 150.94L278.994 141.005L269.794 131.07V150.94ZM269.794 125.984L278.994 116.05L269.794 106.119V125.984ZM269.794 101.029L278.994 91.0939L269.794 81.1631V101.029ZM269.794 76.0729L278.994 66.1422L269.794 56.2075V76.0729ZM290.48 56.2075L281.28 66.1422L290.48 76.0729V56.2075ZM290.48 81.1631L281.28 91.0939L290.48 101.029V81.1631ZM290.48 106.119L281.28 116.05L290.48 125.984V106.119ZM290.48 131.07L281.28 141.005L290.48 150.94V131.07ZM290.48 156.03L281.28 165.961L290.48 175.892V156.03ZM290.48 180.986L281.28 190.916L290.48 200.847V180.986ZM290.48 205.937L281.28 215.872L290.48 225.803V205.937ZM290.48 230.893L281.28 240.828L290.48 250.758V230.893ZM269.794 78.542V78.6941L280.139 89.8613L290.48 78.6941V78.542L280.139 67.3747L269.794 78.542ZM269.794 103.498V103.65L280.139 114.817L290.48 103.65V103.498L280.139 92.3303L269.794 103.498ZM269.794 128.453V128.605L280.139 139.769L290.48 128.605V128.453L280.139 117.286L269.794 128.453ZM269.794 153.409V153.557L280.139 164.728L290.48 153.557V153.409L280.139 142.242L269.794 153.409ZM269.794 178.364V178.513L280.139 189.68L290.48 178.513V178.364L280.139 167.197L269.794 178.364ZM269.794 203.32V203.468L280.139 214.636L290.48 203.468V203.32L280.139 192.149L269.794 203.32ZM269.794 228.272V228.424L280.139 239.591L290.48 228.424V228.272L280.139 217.108L269.794 228.272ZM269.794 253.227V253.38L280.139 264.547L290.48 253.38V253.227L280.139 242.06L269.794 253.227Z" fill="#F39C3F"/>
<path fill-rule="evenodd" clip-rule="evenodd" d="M70.9704 52.5098H408.69C410.276 52.5098 411.558 53.8984 411.558 55.6107V282.832C411.558 284.541 410.276 285.929 408.69 285.929H70.9704C69.3848 285.929 68.1025 284.541 68.1025 282.832V55.6107C68.1025 53.8984 69.3848 52.5098 70.9704 52.5098ZM405.819 58.7116H73.8418V264.734H405.819V58.7116Z" fill="white"/>
<path fill-rule="evenodd" clip-rule="evenodd" d="M61.185 301.157H74.5671C76.2141 301.157 77.7131 301.887 78.8003 303.057C79.8838 304.231 80.5593 305.85 80.5593 307.628V314.509C80.5593 317.582 79.3926 320.379 77.518 322.407C75.6398 324.432 73.0501 325.688 70.2039 325.688H61.185C60.4482 325.688 59.8486 325.044 59.8486 324.245V302.6C59.8486 301.805 60.4482 301.157 61.185 301.157ZM74.5671 304.044H62.5214V322.801H70.2039C72.3133 322.801 74.2348 321.869 75.629 320.364C77.0196 318.862 77.8865 316.787 77.8865 314.509V307.628C77.8865 306.645 77.5108 305.748 76.9076 305.101C76.3081 304.449 75.4773 304.044 74.5671 304.044Z" fill="#183784"/>
<path d="M67.8347 293.883H40.2723C39.8966 293.883 39.5752 293.922 39.2212 294.007C36.3245 294.698 35.4648 297.163 35.4648 299.004C35.4648 299.804 35.5624 300.635 35.649 301.43C35.7899 302.756 35.9669 304.083 36.1583 305.405C36.6748 308.966 37.3105 312.531 38.0726 316.069C38.8961 319.868 39.8569 323.808 41.3306 327.513C41.345 327.544 41.3558 327.576 41.3703 327.607C42.1469 329.245 44.3429 330.485 46.9435 330.485C51.6823 330.485 56.4247 330.485 61.1635 330.485C63.7641 330.485 65.9601 329.245 66.733 327.607C66.7511 327.576 66.7619 327.544 66.7764 327.513C68.25 323.808 69.2108 319.868 70.0307 316.069C70.7964 312.531 71.4321 308.966 71.9486 305.405C72.1401 304.083 72.317 302.756 72.4579 301.43C72.5446 300.635 72.6421 299.804 72.6421 299.004C72.6421 297.163 71.7825 294.698 68.8857 294.007C68.5318 293.922 68.2103 293.883 67.8347 293.883Z" fill="#235FA1"/>
<path d="M35.4757 298.665C35.4685 298.782 35.4648 298.895 35.4648 299.004C35.4648 299.632 35.5262 300.284 35.5913 300.919H72.5157C72.5807 300.284 72.6421 299.632 72.6421 299.004C72.6421 298.895 72.6385 298.782 72.6313 298.665H35.4757ZM35.8766 303.342C35.9633 304.032 36.0608 304.718 36.1583 305.405L36.1872 305.592H71.9197L71.9486 305.405C72.0462 304.718 72.1437 304.032 72.2304 303.342H35.8766Z" fill="white"/>
<path d="M43.552 314.189C43.552 314.509 43.3136 314.77 43.0175 314.77C42.7213 314.77 42.4829 314.509 42.4829 314.189V292.771C42.4829 292.018 42.7682 291.332 43.227 290.836H43.2306V290.832L43.245 290.821C43.7037 290.333 44.3322 290.029 45.0221 290.029C45.7228 290.029 46.3585 290.337 46.8172 290.832C47.2759 291.332 47.5612 292.014 47.5612 292.771V293.883H46.4921V292.771C46.4921 292.334 46.326 291.936 46.0623 291.652C45.795 291.363 45.4266 291.183 45.0221 291.183C44.6212 291.183 44.2564 291.359 43.9927 291.64L43.9855 291.648L43.9818 291.652C43.7182 291.936 43.552 292.334 43.552 292.771V314.189Z" fill="white"/>
<path d="M39.0553 322.54H46.9798C47.5252 322.54 47.9731 322.06 47.9731 321.471V310.866C47.9731 310.281 47.5252 309.797 46.9798 309.797H39.0553C38.5099 309.797 38.062 310.281 38.062 310.866V321.471C38.062 322.06 38.5099 322.54 39.0553 322.54Z" fill="#E95C4D"/>
<path d="M47.9731 313.573V313.553V310.866C47.9731 310.281 47.5252 309.797 46.9798 309.797H39.0553C38.5099 309.797 38.062 310.281 38.062 310.866V313.553V313.573C38.0728 313.912 38.3329 314.189 38.6508 314.189H47.3843C47.7022 314.189 47.9622 313.912 47.9731 313.573Z" fill="white"/>
<path d="M345.337 92.8257C345.337 92.2485 345.77 91.7804 346.305 91.7804C346.839 91.7804 347.273 92.2485 347.273 92.8257V118.175C347.273 118.749 346.839 119.217 346.305 119.217C345.77 119.217 345.337 118.749 345.337 118.175V92.8257Z" fill="#F08E41"/>
<path d="M360.583 92.8257C360.583 92.2485 361.016 91.7804 361.551 91.7804C362.086 91.7804 362.519 92.2485 362.519 92.8257V118.175C362.519 118.749 362.086 119.217 361.551 119.217C361.016 119.217 360.583 118.749 360.583 118.175V92.8257Z" fill="#F08E41"/>
<path d="M375.829 92.8257C375.829 92.2485 376.262 91.7804 376.793 91.7804C377.327 91.7804 377.761 92.2485 377.761 92.8257V118.175C377.761 118.749 377.327 119.217 376.793 119.217C376.262 119.217 375.829 118.749 375.829 118.175V92.8257Z" fill="#F08E41"/>
<path d="M391.071 92.8257C391.071 92.2485 391.505 91.7804 392.039 91.7804C392.574 91.7804 393.007 92.2485 393.007 92.8257V118.175C393.007 118.749 392.574 119.217 392.039 119.217C391.505 119.217 391.071 118.749 391.071 118.175V92.8257Z" fill="#F08E41"/>
<path d="M346.304 95.1309C347.478 95.1309 348.439 94.0933 348.439 92.8257C348.439 91.558 347.478 90.5204 346.304 90.5204C345.13 90.5204 344.173 91.558 344.173 92.8257C344.173 94.0933 345.13 95.1309 346.304 95.1309Z" fill="#C76534"/>
<path d="M361.551 95.1309C362.725 95.1309 363.682 94.0933 363.682 92.8257C363.682 91.558 362.725 90.5204 361.551 90.5204C360.377 90.5204 359.416 91.558 359.416 92.8257C359.416 94.0933 360.377 95.1309 361.551 95.1309Z" fill="#C76534"/>
<path d="M376.793 120.477C377.97 120.477 378.927 119.443 378.927 118.175C378.927 116.904 377.97 115.87 376.793 115.87C375.619 115.87 374.662 116.904 374.662 118.175C374.662 119.443 375.619 120.477 376.793 120.477Z" fill="#C76534"/>
<path d="M392.039 120.477C393.213 120.477 394.174 119.443 394.174 118.175C394.174 116.904 393.213 115.87 392.039 115.87C390.865 115.87 389.904 116.904 389.904 118.175C389.904 119.443 390.865 120.477 392.039 120.477Z" fill="#C76534"/>
<path d="M344.47 101.091C343.759 101.091 343.181 100.467 343.181 99.6984C343.181 98.93 343.759 98.306 344.47 98.306H348.14C348.851 98.306 349.429 98.93 349.429 99.6984C349.429 100.467 348.851 101.091 348.14 101.091H344.47Z" fill="#F5F3E0"/>
<path d="M359.716 110.308C359.005 110.308 358.427 109.684 358.427 108.915C358.427 108.143 359.005 107.519 359.716 107.519H363.386C364.097 107.519 364.675 108.143 364.675 108.915C364.675 109.684 364.097 110.308 363.386 110.308H359.716Z" fill="#F5F3E0"/>
<path d="M374.958 105.331C374.246 105.331 373.668 104.707 373.668 103.938C373.668 103.17 374.246 102.546 374.958 102.546H378.628C379.339 102.546 379.917 103.17 379.917 103.938C379.917 104.707 379.339 105.331 378.628 105.331H374.958Z" fill="#F5F3E0"/>
<path d="M390.203 112.336C389.492 112.336 388.914 111.712 388.914 110.94C388.914 110.171 389.492 109.547 390.203 109.547H393.873C394.585 109.547 395.163 110.171 395.163 110.94C395.163 111.712 394.585 112.336 393.873 112.336H390.203Z" fill="#F5F3E0"/>
<path d="M378.538 143.946C359.023 155.351 351.766 181.68 362.324 202.751C368.19 214.456 378.321 222.074 389.511 224.582C391.902 229.048 394.596 234.458 396.088 236.993C397.695 239.728 400.986 239.825 402.416 236.697L408.224 223.966C411.139 223.108 414.007 221.875 416.777 220.256C436.288 208.855 443.548 182.526 432.987 161.456C422.43 140.381 398.049 132.545 378.538 143.946Z" fill="#F39C3F"/>
<path d="M405.819 229.239L408.224 223.966C409.344 223.638 410.456 223.252 411.558 222.811V141.403C409.691 140.658 407.769 140.065 405.819 139.628V229.239Z" fill="#F8BD34"/>
<path d="M376.493 137.752C356.981 149.153 349.722 175.482 360.283 196.553C366.148 208.258 376.28 215.876 387.469 218.388C389.857 222.85 392.555 228.26 394.047 230.799C395.654 233.53 398.944 233.627 400.375 230.503L406.183 217.772C409.094 216.909 411.965 215.681 414.732 214.058C434.247 202.657 441.503 176.332 430.946 155.258C420.385 134.187 396.008 126.347 376.493 137.752Z" fill="white"/>
<path fill-rule="evenodd" clip-rule="evenodd" d="M356.188 163.23C359.189 152.332 366.045 142.675 376.039 136.832C386.029 130.996 397.266 130.084 407.354 133.325C417.445 136.57 426.389 143.973 431.796 154.766C437.203 165.551 438.048 177.69 435.043 188.584C432.038 199.478 425.186 209.14 415.192 214.979C413.79 215.798 412.36 216.523 410.908 217.151C409.579 217.729 408.228 218.224 406.859 218.645L401.239 230.963C400.784 231.962 400.159 232.699 399.451 233.186C398.812 233.623 398.104 233.853 397.381 233.885C396.67 233.916 395.955 233.752 395.29 233.397C394.495 232.976 393.777 232.285 393.228 231.357C392.31 229.797 390.945 227.164 389.475 224.332C388.597 222.639 387.68 220.872 386.849 219.308C381.168 217.967 375.761 215.338 371.04 211.542C366.377 207.798 362.378 202.926 359.435 197.048C354.028 186.259 353.183 174.125 356.188 163.23ZM376.952 138.669C367.432 144.235 360.901 153.44 358.037 163.823C355.176 174.21 355.982 185.775 361.132 196.061C363.942 201.662 367.749 206.304 372.188 209.869C376.801 213.575 382.099 216.118 387.665 217.366C387.947 217.428 388.171 217.616 388.305 217.865C389.283 219.695 390.244 221.543 391.162 223.314C392.614 226.111 393.965 228.709 394.86 230.238C395.214 230.838 395.662 231.271 396.143 231.529C396.518 231.728 396.919 231.821 397.306 231.806C397.685 231.786 398.068 231.661 398.418 231.423C398.841 231.131 399.22 230.675 399.509 230.039L405.317 217.311C405.45 217.015 405.7 216.82 405.974 216.754C407.383 216.336 408.791 215.825 410.189 215.217C411.569 214.62 412.934 213.926 414.278 213.142C423.799 207.579 430.329 198.37 433.193 187.987C436.054 177.604 435.249 166.035 430.098 155.753C424.944 145.471 416.42 138.419 406.801 135.326C397.186 132.233 386.473 133.107 376.952 138.669Z" fill="#FCD045"/>
<path d="M370.545 183.209C370.971 182.979 371.361 182.678 371.694 182.316C371.708 182.304 371.723 182.288 371.737 182.277C372.496 181.434 372.969 180.28 372.969 179.012V174.873V170.735V166.827C372.969 165.025 373.651 163.386 374.749 162.197C375.851 161.011 377.368 160.274 379.037 160.274H379.04C380.709 160.274 382.226 161.011 383.328 162.201C384.422 163.379 385.101 165.013 385.108 166.807V166.827V183.876V190.795C385.108 192.083 385.596 193.253 386.383 194.103C386.398 194.119 386.409 194.13 386.423 194.146C387.203 194.969 388.272 195.48 389.446 195.48C390.638 195.48 391.722 194.953 392.505 194.103C393.293 193.253 393.78 192.083 393.78 190.795V153.873C393.78 152.071 394.463 150.433 395.561 149.243C396.663 148.053 398.183 147.316 399.852 147.316C401.521 147.316 403.038 148.053 404.139 149.243C405.237 150.433 405.92 152.071 405.92 153.873V189.364V189.387C405.927 190.667 406.411 191.829 407.191 192.672H407.195C407.982 193.518 409.062 194.045 410.254 194.045H410.258C411.45 194.045 412.53 193.518 413.317 192.672C414.105 191.821 414.592 190.651 414.592 189.364V175.065C414.592 173.263 415.275 171.624 416.373 170.435H416.376H416.373C416.944 169.818 417.623 169.327 418.377 168.991C418.576 167.825 419.522 166.94 420.664 166.94C421.946 166.94 422.986 168.059 422.986 169.444C422.986 170.832 421.946 171.952 420.664 171.952C419.869 171.952 419.168 171.523 418.749 170.864C418.323 171.094 417.933 171.398 417.601 171.757C416.814 172.603 416.326 173.777 416.326 175.065V189.364C416.326 191.166 415.643 192.808 414.545 193.994C413.444 195.184 411.927 195.921 410.258 195.921H410.254C408.586 195.921 407.069 195.184 405.967 193.994H405.971C404.869 192.804 404.186 191.166 404.186 189.364V189.341V153.873C404.186 152.582 403.699 151.412 402.911 150.561C402.128 149.715 401.044 149.188 399.852 149.188C398.657 149.188 397.573 149.715 396.789 150.561C396.002 151.412 395.514 152.582 395.514 153.873V190.795C395.514 192.601 394.832 194.24 393.734 195.429C392.635 196.615 391.115 197.352 389.446 197.352C387.803 197.352 386.3 196.635 385.206 195.476C385.188 195.46 385.173 195.445 385.155 195.429C384.057 194.24 383.375 192.601 383.375 190.795V183.876V166.827C383.375 165.543 382.887 164.373 382.1 163.523C381.312 162.676 380.229 162.15 379.04 162.15H379.037C377.848 162.15 376.765 162.673 375.977 163.523C375.19 164.373 374.702 165.543 374.702 166.827V170.735V174.873V179.012C374.702 180.787 374.041 182.405 372.965 183.587C372.951 183.607 372.936 183.626 372.922 183.642C372.351 184.254 371.672 184.75 370.917 185.081C370.719 186.251 369.772 187.137 368.634 187.137C367.352 187.137 366.312 186.013 366.312 184.629C366.312 183.244 367.352 182.121 368.634 182.121C369.425 182.121 370.126 182.554 370.545 183.209Z" fill="#E32D31"/>
<path d="M114.581 45.832C136.23 39.911 158.223 54.0661 163.706 77.4459C166.751 90.4346 164.06 103.537 157.353 113.631C158.404 118.698 159.823 124.689 160.318 127.661C160.853 130.871 158.476 133.368 155.446 132.104L143.107 126.951C140.406 128.457 137.505 129.658 134.432 130.497C112.782 136.418 90.7891 122.263 85.3062 98.8871C79.8233 75.5034 92.9309 51.753 114.581 45.832Z" fill="#F39C3F"/>
<path d="M116.347 40.3674C137.996 34.4502 159.993 48.6014 165.472 71.9812C168.52 84.97 165.826 98.068 159.122 108.166C160.17 113.229 161.589 119.224 162.088 122.197C162.622 125.407 160.246 127.903 157.212 126.639L144.873 121.487C142.175 122.992 139.271 124.194 136.198 125.032C114.551 130.953 92.555 116.802 87.0721 93.4224C81.5928 70.0426 94.6968 46.2884 116.347 40.3674Z" fill="white"/>
<path fill-rule="evenodd" clip-rule="evenodd" d="M116.112 39.3571C127.193 36.3264 138.364 38.4366 147.466 44.2952C156.572 50.1499 163.604 59.7608 166.411 71.7276C167.939 78.2454 168.054 84.7944 166.967 90.9963C165.862 97.2879 163.518 103.221 160.155 108.397C160.502 110.031 160.953 112.083 161.383 114.052C162.077 117.196 162.716 120.11 163.034 122.013C163.218 123.109 163.12 124.143 162.799 125.036C162.528 125.789 162.105 126.44 161.56 126.94C161.011 127.443 160.339 127.79 159.588 127.938C158.757 128.098 157.829 128.012 156.865 127.611L144.927 122.626C143.656 123.32 142.338 123.944 140.979 124.502C139.506 125.103 137.989 125.621 136.432 126.047C125.354 129.077 114.183 126.967 105.077 121.108C95.9752 115.25 88.9428 105.643 86.1364 93.6721C83.3299 81.7091 85.284 69.6448 90.7091 59.8115C96.1305 49.9822 105.03 42.3878 116.112 39.3571ZM146.477 46.0816C137.801 40.5 127.15 38.4912 116.581 41.3815C106.016 44.2718 97.5355 51.5112 92.3633 60.8803C87.1947 70.2533 85.3345 81.7559 88.011 93.1689C90.6838 104.578 97.3911 113.736 106.067 119.322C114.746 124.904 125.394 126.912 135.966 124.022C137.454 123.613 138.903 123.121 140.3 122.552C141.724 121.967 143.103 121.3 144.432 120.558C144.667 120.43 144.956 120.402 145.223 120.516L157.558 125.668C158.179 125.926 158.75 125.984 159.245 125.89C159.653 125.809 160.014 125.621 160.31 125.348C160.614 125.071 160.849 124.709 161 124.283C161.195 123.737 161.257 123.086 161.137 122.38C160.849 120.66 160.202 117.711 159.501 114.536C159.09 112.66 158.66 110.698 158.197 108.478C158.111 108.178 158.15 107.835 158.335 107.558C161.672 102.534 163.991 96.7496 165.067 90.614C166.107 84.7008 165.996 78.4561 164.536 72.2347C161.86 60.8257 155.156 51.6633 146.477 46.0816Z" fill="#FCD045"/>
<path d="M111.619 71.833C115.296 67.8271 121.32 67.8271 124.997 71.833L126.464 73.4283L127.927 71.833C131.607 67.8271 137.628 67.8271 141.309 71.833C144.989 75.8427 144.989 82.3956 141.309 86.4054L139.842 87.9968L126.464 102.565L113.082 87.9968L111.619 86.4054C107.938 82.3956 107.938 75.8427 111.619 71.833Z" fill="#E95C4D"/>
<path d="M253.208 127.739C253.833 135.131 255.357 143.638 258.904 149.028C266.298 160.27 285.91 159.977 297.44 150.518C308.969 141.06 320.411 115.96 307.39 95.4429C294.369 74.9222 297.447 66.9417 293.661 46.0465C289.873 25.1514 261.49 13.5239 239.136 21.3873C216.786 29.2508 208.334 57.0226 213.987 65.9159C213.138 76.8647 209.678 88.1762 203.61 99.8466C194.504 117.352 193.876 150.429 228.828 146.419C240.447 145.085 248.191 137.502 253.208 127.739Z" fill="#332966"/>
<path d="M304.411 120.301L297.534 121.225C296.728 116.081 296.136 112.863 295.764 111.568C295.201 109.629 293.803 104.172 293.803 101.988C293.803 99.8037 299.188 100.775 300.423 103.564C301.659 106.353 301.492 106.719 302.11 107.262C302.522 107.628 303.475 107.609 304.974 107.203L304.411 120.301Z" fill="#D87170"/>
<path d="M306.281 104.36L305.324 100.237L303.305 97.9938C300.311 98.9222 298.306 99.2459 297.295 98.9612C295.778 98.536 294.965 96.2347 295.272 95.4468C295.583 94.655 299.542 93.6876 303.052 92.8958C306.563 92.1118 308.528 94.9904 309.705 96.3868C310.887 97.7793 310.493 97.9002 311.446 100.935C312.255 103.501 313.303 107.324 313.711 109.212L300.975 119.158C299.827 115.379 301.47 109.048 306.281 104.36Z" fill="#EE8B83"/>
<path d="M310.728 100.896L309.774 96.7692L307.752 94.5263C304.757 95.4547 302.753 95.7784 301.741 95.4976C300.224 95.0724 299.412 92.7672 299.722 91.9793C300.029 91.1914 303.988 90.2202 307.499 89.4322C311.01 88.6443 312.974 91.5268 314.155 92.9193C315.333 94.3157 314.939 94.4366 315.893 97.4673C316.702 100.034 317.753 103.86 318.157 105.748L305.422 115.691C304.273 111.915 305.917 105.58 310.728 100.896Z" fill="#EFA68C"/>
<path d="M258.637 73.7598H233.953C230.338 73.7598 227.38 76.9544 227.38 80.8588V126.983C227.351 127.494 226.683 136.594 215.114 139.687L246.299 194.797L277.48 139.687C269.545 137.565 265.456 133.321 265.214 126.959V80.8588C265.214 76.9544 262.256 73.7598 258.637 73.7598Z" fill="#F2BA95"/>
<path d="M226.61 130.224C229.886 134.148 234.076 138.981 236.196 140.65C238.453 142.429 241.422 143.548 244.442 144.001C247.454 144.469 250.596 144.281 253.222 143.252C256.357 142.019 264.022 136.882 268.172 134.023C266.29 131.691 265.304 129.335 265.214 126.959V122.466C265.145 122.084 265.105 121.779 265.098 121.553V79.5482C264.524 76.264 261.84 73.7598 258.637 73.7598H233.953C230.337 73.7598 227.379 76.9544 227.379 80.8588V126.983C227.368 127.166 227.274 128.48 226.61 130.224Z" fill="#EE8B83"/>
<path d="M283.393 89.6818C285.693 87.6652 287.517 86.8227 288.861 87.1621C290.88 87.673 292.82 92.771 292.079 96.3049C291.342 99.8349 285.896 111.669 279.77 105.959C275.685 102.152 276.895 96.7262 283.393 89.6818Z" fill="#F2BA95"/>
<path d="M280.323 93.3094C280.059 93.52 279.936 93.9296 280.055 94.2221C280.157 94.4873 280.417 94.5653 280.662 94.4288C280.94 101.937 281.656 105.198 282.808 104.204C284.534 102.71 286.333 101.298 287.323 98.6024C288.312 95.9071 286.34 93.009 287.261 92.4044C288.142 91.8272 288.85 93.0363 288.915 93.1494L288.919 93.1533V93.1573C289.468 94.2026 289.638 95.3572 289.638 95.3611C289.688 95.6965 289.963 95.8564 290.245 95.716C290.53 95.5795 290.718 95.1972 290.664 94.8618C290.664 94.8501 290.031 90.501 287.174 90.2201C284.448 89.951 280.334 93.2977 280.323 93.3094Z" fill="#EE8B83"/>
<path d="M220.073 78.7994C218.339 76.2016 216.782 74.8754 215.403 74.8247C213.333 74.7467 210.227 79.1192 210.086 82.7389C209.945 86.3547 212.34 99.3162 219.632 95.5327C224.494 93.009 224.642 87.4313 220.073 78.7994Z" fill="#F2BA95"/>
<path d="M222.16 83.164C222.362 83.4448 222.38 83.8739 222.196 84.1235C222.034 84.3498 221.763 84.3537 221.561 84.1508C219.473 91.32 217.996 94.2649 217.125 92.9817C215.818 91.0548 214.427 89.1786 214.124 86.3C213.817 83.4214 216.424 81.1747 215.68 80.3322C214.973 79.5287 213.994 80.496 213.903 80.5858L213.9 80.5897L213.896 80.5936C213.116 81.4478 212.672 82.5126 212.672 82.5165C212.538 82.8247 212.238 82.9027 211.996 82.6881C211.758 82.4775 211.668 82.0524 211.801 81.7442C211.805 81.7364 213.466 77.715 216.291 78.2493C218.993 78.7564 222.149 83.1523 222.16 83.164Z" fill="#EE8B83"/>
<path d="M258.131 34.8989C300.112 41.99 289.291 76.4045 281.843 104.352C279.756 112.192 276.353 118.164 271.636 122.263C262.751 128.551 256.842 132.268 253.905 133.422C251.28 134.456 248.141 134.639 245.125 134.175C242.105 133.719 239.136 132.599 236.879 130.825C234.354 128.835 229.633 123.488 222.713 114.786C219.235 109.434 217.497 102.682 217.505 94.5224C217.53 65.4401 215.977 29.1339 258.131 34.8989Z" fill="#F2BA95"/>
<path d="M262.223 90.8637L260.688 89.678C262.548 87.6419 264.253 86.3703 265.81 85.8593C268.139 85.0909 270.245 85.2119 272.094 86.5965C273.944 87.9773 274.966 89.4829 275.338 90.3723C275.706 91.2655 275.009 92.5215 273.503 92.6619C271.993 92.7984 269.804 88.3323 262.223 90.8637Z" fill="#EE8B83"/>
<path d="M238.818 87.4234L240.805 86.7681C239.479 83.7647 237.453 81.6077 234.722 80.2971C230.627 78.3313 227.983 81.7715 226.787 82.696C225.592 83.6165 226.798 85.3639 227.488 85.8398C228.181 86.3196 231.735 83.4917 238.818 87.4234Z" fill="#EE8B83"/>
<path d="M288.344 60.541C289.269 66.4152 288.85 72.8667 287.759 79.4898C286.799 79.7706 285.701 79.9812 284.44 80.1139C272.607 81.3425 266.655 77.1807 266.579 67.6321L274.37 67.1524L261.627 58.7116L223.749 61.8477C223.478 67.4722 223.952 70.5927 225.165 71.2089C226.379 71.8213 228.73 71.8408 232.219 71.2674C234.459 78.0661 239.587 80.3362 247.613 78.0817C245.236 61.0363 244.052 52.8686 244.052 53.5785C244.052 54.6395 288.308 60.5332 288.344 60.541Z" fill="#EE8B83"/>
<path d="M245.252 114.708C244.858 114.571 244.645 114.119 244.771 113.697C244.894 113.272 245.317 113.038 245.707 113.175C245.714 113.179 247.791 113.869 250.568 113.877C250.98 113.881 251.312 114.243 251.309 114.688C251.305 115.133 250.969 115.492 250.558 115.488C247.563 115.48 245.259 114.708 245.252 114.708Z" fill="#EE8B83"/>
<path d="M238.952 76.9583C239.526 77.2197 240.108 77.2548 240.693 77.0675C241.574 76.7867 242.448 75.4059 242.448 75.0549C242.452 74.7077 241.935 75.1836 240.454 74.1772C239.002 73.1904 233.498 70.5068 228.983 74.306C228.203 74.9613 228.647 75.6282 229.546 75.4449C230.446 75.2616 234.365 73.7911 238.952 76.9583Z" fill="#342A60"/>
<path d="M264.401 80.535C263.791 80.6832 263.213 80.6091 262.664 80.3166C261.844 79.8758 261.208 78.3468 261.259 78.0036C261.313 77.6603 261.746 78.2298 263.368 77.516C264.957 76.8178 270.809 75.2069 274.644 79.7978C275.302 80.5896 274.76 81.163 273.904 80.812C273.048 80.4609 269.429 78.2766 264.401 80.535Z" fill="#342A60"/>
<path d="M251.948 101.025C252.385 100.709 252.262 99.0392 252.092 97.9042C251.962 97.046 251.821 96.617 251.594 96.6209C251.392 96.5 251.099 96.812 250.655 97.5141C250.066 98.4424 249.315 99.87 249.582 100.381C249.932 101.06 251.373 101.45 251.948 101.025Z" fill="#F9D4C8"/>
<path d="M253.544 91.8817C253.5 91.4995 253.175 91.2264 252.821 91.2732C252.467 91.32 252.215 91.6711 252.258 92.0533C252.402 93.3249 253.255 100.56 253.034 101.165C252.865 101.555 252.059 101.992 251.709 102.148C251.106 102.413 250.427 102.565 249.773 102.491C249.419 102.452 249.098 102.733 249.065 103.115C249.025 103.501 249.289 103.845 249.643 103.884C250.506 103.977 251.402 103.798 252.2 103.443C252.876 103.146 253.887 102.499 254.208 101.758C254.569 100.931 253.753 93.2937 253.544 91.8817Z" fill="#EE8B83"/>
<path d="M263.43 92.4551C262.812 92.5722 262.238 92.4746 261.703 92.1548C260.898 91.675 260.324 90.1187 260.392 89.7794C260.461 89.44 260.869 90.0251 262.516 89.3893C263.867 88.8627 268.226 87.8447 271.752 90.3176C272.178 90.1148 272.622 89.7482 272.814 89.0812C272.918 88.7301 273.265 88.5312 273.594 88.6404C273.919 88.7535 274.103 89.128 274.002 89.4829C273.764 90.302 273.308 90.8442 272.821 91.2031L272.9 91.285C273.124 91.2694 273.348 91.1797 273.55 90.9534C273.792 90.6882 274.186 90.6843 274.435 90.9417C274.681 91.1992 274.685 91.6243 274.446 91.8935C274.244 92.1158 274.038 92.2796 273.829 92.3966C274.219 93.0987 273.68 93.5239 272.915 93.1689C272.073 92.7789 268.541 90.4308 263.43 92.4551Z" fill="#342A60"/>
<path d="M246.298 333.937H180.11C182.126 326.433 186.211 312.051 192.362 290.797C191.26 288.761 191.455 287.111 192.947 285.84L181.58 225.643C186.922 201.885 186.774 177.21 181.14 151.618C183.888 148.646 187.309 146.696 191.394 145.764C195.479 144.831 204.429 142.156 218.245 137.744H219.975C218.617 138.509 217.013 139.18 215.113 139.687C222.279 149.598 234.242 154.739 246.298 154.743C258.351 154.739 270.314 149.598 277.48 139.687C275.58 139.18 273.976 138.509 272.622 137.744H274.348C288.164 142.156 297.114 144.831 301.199 145.764C305.288 146.696 308.705 148.646 311.453 151.618C301.318 168.157 298.924 188.303 304.266 212.061L296.688 275.027C298.18 276.295 298.375 277.949 297.273 279.989C305.396 308.447 310.467 326.433 312.483 333.937H246.298Z" fill="white"/>
<path d="M196.007 144.543C200.738 143.201 207.189 141.216 211.924 139.737C217.722 150.444 221.243 163.726 223.457 175.614C223.544 176.083 223.468 176.519 223.222 176.917C222.977 177.315 222.634 177.561 222.2 177.654L209.602 180.377C208.735 180.564 207.89 179.952 207.713 179.02C206.503 172.514 205.008 165.972 202.992 159.7C201.775 155.905 200.319 152.055 198.481 148.56C197.961 147.577 197.015 145.928 196.007 144.543ZM283.046 140.478C288.89 142.292 296.215 144.516 300.127 145.502C301.525 157.052 300.488 169.725 298.798 180.837C298.726 181.309 298.505 181.688 298.148 181.965C297.787 182.242 297.386 182.347 296.949 182.265L284.278 179.999C283.404 179.843 282.812 178.949 282.956 178.006C283.953 171.46 284.701 164.771 284.87 158.132C284.972 154.119 284.87 149.965 284.296 145.99C284.108 144.691 283.671 142.316 283.046 140.478Z" fill="#2681E6"/>
<path d="M246.298 333.937H180.11C182.126 326.433 186.211 312.051 192.362 290.797C191.26 288.761 191.455 287.111 192.947 285.84L183.596 236.33C189.696 227.472 194.981 219.858 199.448 213.5L211.798 189.77C213.13 187.347 214.824 186.368 216.883 186.825C219.971 187.511 264.918 197.809 290.342 188.003C292.039 187.152 293.221 187.203 293.885 188.151C297.147 192.792 297.793 196.194 302.492 202.392C302.947 205.559 303.529 208.789 304.266 212.061L296.688 275.027C298.18 276.295 298.375 277.949 297.273 279.989C305.396 308.447 310.467 326.433 312.483 333.937H246.298Z" fill="#2681E6"/>
<path d="M187.663 307.117C189.368 301.169 190.936 295.728 192.362 290.797C191.261 288.761 191.456 287.111 192.947 285.84L190.809 274.528L183.596 236.33C189.697 227.472 194.981 219.858 199.449 213.5L199.976 212.486L201.096 211.96L208.836 256.176C211.339 262.893 216.194 266.251 223.399 266.251L222.926 269.902L297.851 278.261C297.786 278.784 297.613 279.361 297.273 279.989C297.978 282.442 298.848 285.5 299.888 289.155L187.663 307.117Z" fill="#183784"/>
<path d="M237.652 88.691C238.215 88.9797 238.793 89.0499 239.389 88.8939C240.281 88.6637 241.217 87.3297 241.235 86.9826C241.256 86.6355 240.714 87.0801 239.284 85.9958C238.11 85.1025 234.159 82.8675 230.15 84.2405C229.792 83.9246 229.453 83.4448 229.431 82.7466C229.42 82.3761 229.131 82.0874 228.788 82.0991C228.445 82.1108 228.178 82.4229 228.188 82.7934C228.217 83.6515 228.521 84.3029 228.904 84.7905L228.806 84.8451C228.597 84.7671 228.402 84.615 228.261 84.338C228.095 84.0143 227.715 83.8973 227.412 84.0767C227.112 84.2522 227.004 84.6618 227.166 84.9894C227.307 85.2625 227.466 85.4809 227.636 85.6525C227.09 86.2181 227.502 86.7798 228.329 86.6589C229.236 86.5223 233.22 85.2703 237.652 88.691Z" fill="#342A60"/>
<path d="M240.497 108.869C240.086 108.67 239.901 108.151 240.082 107.706C240.263 107.265 240.743 107.063 241.155 107.262C241.176 107.269 248.498 110.834 256.513 109.504C256.957 109.43 257.376 109.762 257.441 110.242C257.509 110.721 257.202 111.17 256.758 111.244C248.274 112.648 240.519 108.876 240.497 108.869Z" fill="#EE8B83"/>
<path d="M319.656 226.727C321.852 225.931 323.247 224.519 323.832 222.491C324.713 219.449 314.748 215.607 314.538 216.278C314.329 216.945 316.597 225.424 319.656 226.727Z" fill="#F9DEEA"/>
<path d="M315.413 216.434C331.453 230.07 346.742 215.326 349.556 211.371L308.427 172.919L315.413 216.434Z" fill="#F2BA95"/>
<path d="M315.015 217.354C316.25 218.021 317.793 218.727 319.642 219.472C319.273 216.348 318.829 212.283 318.829 206.241C318.829 202.212 321.368 199.182 326.45 197.149L316.926 180.217C314.701 182.195 312.519 184.133 310.37 186.021L315.015 217.354Z" fill="#EE8B83"/>
<path d="M302.89 146.24C297.468 166.671 296.031 181.493 298.585 190.71C302.417 204.529 305.675 211.687 307.134 214.476C308.597 217.268 315.784 224.605 317.132 226.06C318.027 227.031 318.873 227.254 319.656 226.727C319.208 226.606 318.779 225.818 318.367 224.363C317.749 222.179 316.496 203.741 316.496 196.342C316.496 191.408 319.443 186.801 325.331 182.518C320.689 159.716 313.209 147.624 302.89 146.24Z" fill="white"/>
<path d="M302.178 130.403L325.666 209.99C328.213 215.65 332.255 218.762 337.799 219.328C346.106 220.174 354.89 207.057 351.972 196.022C350.025 188.662 338.095 164.443 316.185 123.359C311.338 121.506 306.671 123.854 302.178 130.403Z" fill="#F2BA95"/>
<path d="M302.439 131.281C296.605 126.203 295.41 118.113 301.803 115.632C304.833 110.374 308.069 106.758 311.515 104.777L314.885 98.3489L313.928 94.226L311.905 91.9793C308.911 92.9115 306.91 93.2353 305.899 92.9505C304.382 92.5254 303.569 90.2202 303.876 89.4323C304.187 88.6443 308.145 87.6731 311.656 86.8852C315.163 86.0973 317.128 88.9759 318.309 90.3723C319.487 91.7687 319.093 91.8896 320.05 94.9203C321.004 97.9549 322.297 102.745 322.467 104.02C322.633 105.292 322.633 106.989 321.903 109.052C321.173 111.115 317.934 116.003 317.388 118.117C316.843 120.235 315.608 122.294 316.185 123.359L302.439 131.281Z" fill="#F2BA95"/>
<path d="M301.532 115.441C301.63 115.281 301.828 115.234 301.976 115.339C302.124 115.445 302.168 115.659 302.07 115.819C302.067 115.823 300.9 117.699 300.575 120.465C300.553 120.656 300.391 120.792 300.217 120.765C300.04 120.742 299.914 120.57 299.936 120.379C300.282 117.446 301.528 115.445 301.532 115.441ZM314.044 94.5496C313.877 94.6159 313.69 94.5262 313.628 94.3468C313.567 94.1674 313.65 93.9646 313.816 93.8982L315.304 93.2937C315.47 93.2274 315.658 93.3171 315.72 93.4965C315.781 93.6759 315.698 93.8748 315.532 93.9412L314.044 94.5496ZM314.99 98.6764C314.824 98.7388 314.64 98.6452 314.578 98.4619C314.52 98.2824 314.611 98.0835 314.777 98.0211L316.995 97.1708C317.164 97.1084 317.349 97.202 317.406 97.3853C317.464 97.5648 317.377 97.7637 317.211 97.8261L314.99 98.6764ZM311.942 92.3263C311.765 92.3458 311.606 92.2054 311.588 92.0143C311.569 91.8232 311.7 91.6554 311.873 91.6359C311.88 91.6359 313.372 91.476 313.762 89.947C313.809 89.7637 313.986 89.6545 314.156 89.7052C314.329 89.7559 314.427 89.947 314.38 90.1303C313.874 92.1196 311.945 92.3263 311.942 92.3263Z" fill="#EE8B83"/>
<path d="M363.505 285.929H139.564V264.734H363.505V285.929Z" fill="white"/>
<path d="M78.8149 279.856V271.205C78.8149 270.776 79.1942 270.425 79.6601 270.425C79.9021 270.425 80.1224 270.518 80.2741 270.671L85.2622 274.961C85.6053 275.254 85.6234 275.745 85.3055 276.061C85.2911 276.077 85.2802 276.088 85.2622 276.1V276.104L85.2586 276.108L80.2344 280.426C79.8949 280.722 79.3603 280.703 79.0425 280.387C78.8908 280.235 78.8186 280.044 78.8186 279.856H78.8149Z" fill="#E95C4D"/>
<path d="M383.269 278.195C384.631 278.195 385.736 276.997 385.736 275.531C385.736 274.06 384.631 272.863 383.269 272.863C381.911 272.863 380.802 274.06 380.802 275.531C380.802 276.997 381.911 278.195 383.269 278.195Z" fill="#BADDF5"/>
<path d="M162.073 276.474C161.592 276.474 161.199 276.053 161.199 275.531C161.199 275.008 161.592 274.587 162.073 274.587H343.513C343.993 274.587 344.387 275.008 344.387 275.531C344.387 276.053 343.993 276.474 343.513 276.474H162.073Z" fill="#BADDF5"/>
<path d="M93.4249 278.195C94.783 278.195 95.8919 276.997 95.8919 275.531C95.8919 274.06 94.783 272.863 93.4249 272.863C92.0669 272.863 90.958 274.06 90.958 275.531C90.958 276.997 92.0669 278.195 93.4249 278.195Z" fill="#E95C4D"/>
<path d="M93.4249 276.474C92.9445 276.474 92.5508 276.053 92.5508 275.531C92.5508 275.008 92.9445 274.587 93.4249 274.587H208.439C208.919 274.587 209.313 275.008 209.313 275.531C209.313 276.053 208.919 276.474 208.439 276.474H93.4249Z" fill="#E95C4D"/>
<path d="M194.977 203.156L199.687 221.536C199.842 258.77 199.319 279.81 198.123 284.662C196.324 291.94 186.442 296.305 177.232 294.124C168.022 291.94 165.999 276.9 165.327 265.257C164.876 257.495 165.175 237.524 166.223 205.341C173.114 198.951 182.697 198.226 194.977 203.156Z" fill="#F2BA95"/>
<path d="M194.978 203.156L199.687 221.535C199.698 224.851 199.702 228.9 199.687 233.682C194.002 223.962 186.291 215.837 176.55 209.307L175.661 206.433L190.102 201.526C191.658 201.939 193.284 202.477 194.978 203.156Z" fill="#EE8B83"/>
<path d="M187.111 147.316C193.981 157.871 197.993 170.345 199.149 184.734C200.305 199.127 201.121 211.094 201.591 220.638C201.602 221.738 201.298 222.359 200.681 222.499C191.936 213.649 183.596 208.289 175.661 206.433C167.726 204.572 163.868 205.988 164.092 210.676C163.269 209.545 162.785 208.129 162.633 206.433C162.409 203.882 168.054 172.385 170.229 164.303C172.403 156.217 181.079 149.056 187.111 147.316Z" fill="white"/>
<path d="M144.4 186.396L133.618 175.724C132.195 174.351 131.444 172.693 131.372 170.751C131.296 168.808 131.408 165.415 131.708 160.562L136.761 164.685L137.378 170.871L144.761 175.572L144.4 186.396Z" fill="#EE8B83"/>
<path d="M157.353 211.285C161.918 252.439 164.688 275.406 165.664 280.176C167.123 287.334 172.179 292.787 177.232 294.125C182.282 295.458 195.538 290.606 194.302 281.023C193.067 271.443 178.128 219.047 176.893 215.287L157.353 211.285Z" fill="#F2BA95"/>
<path d="M157.353 211.285C157.446 212.143 157.576 213.309 157.743 214.788C158.371 214.831 159.097 215.084 159.942 215.638C163.533 217.99 174.238 224.808 180.877 229.028C178.822 221.77 177.258 216.399 176.893 215.287L157.353 211.285Z" fill="#EE8B83"/>
<path d="M287.811 91.8622C284.488 88.3713 282.891 83.6984 283.018 77.8476C273.396 80.4922 267.851 76.7009 266.389 66.4854C251.685 86.109 229.598 77.7423 233.524 64.8588C227.604 67.4449 222.529 67.6126 218.3 65.362C216.602 64.4532 216.396 54.9515 218.004 51.2382C220.937 44.4668 226.914 37.8008 235.94 31.2401C260.685 27.0509 276.776 29.0519 284.21 37.243C290.653 44.3381 295.042 58.2864 294.117 70.4912C293.442 79.4195 289.187 89.1592 287.811 91.8622Z" fill="#332966"/>
<path d="M129.259 149.676H120.807C120.236 149.676 120.254 150.179 120.85 150.795L168.672 200.344C169.268 200.96 170.221 201.467 170.792 201.467H179.244C179.814 201.467 179.796 200.96 179.2 200.344L131.379 150.795C130.783 150.179 129.829 149.676 129.259 149.676Z" fill="#1C2244"/>
<path d="M131.043 149.676H128.602C128.006 149.676 128.028 150.203 128.649 150.846L176.373 200.297C176.998 200.941 177.991 201.467 178.587 201.467H181.025C181.621 201.467 181.603 200.941 180.982 200.297L133.254 150.846C132.633 150.203 131.639 149.676 131.043 149.676Z" fill="#342A60"/>
<path d="M168.694 200.917C175.206 203.262 178.54 206.05 178.688 209.284C178.916 214.136 177.005 216.379 174.141 216.804C171.276 217.229 162.575 215.466 157.352 211.285C152.126 207.1 146.961 199.279 145.556 197.399C144.151 195.519 141.738 185.756 141.738 184.118C141.738 182.479 141.738 181.087 142.692 179.145C143.328 177.853 144.285 175.548 145.556 172.233C146.228 170.817 146.755 169.947 147.127 169.623C147.691 169.14 150.161 165.5 151.003 165.075C151.844 164.65 155.326 168.714 153.921 172.354C152.986 174.78 151.657 178.134 149.937 182.421L149.768 184.055L151.79 186.181L156.085 177.721C156.673 176.921 157.277 176.09 157.891 175.232C158.812 173.941 160.968 171.109 161.391 170.563C161.813 170.017 164.901 170.107 165.32 172.322C165.743 174.538 163.02 180.724 162.514 181.812C162.178 182.542 160.885 185.635 158.638 191.092L158.92 192.153L161.755 194.033L167.314 186.575C169.355 184.047 170.807 182.795 171.666 182.815C172.959 182.846 174.224 184.243 173.971 186.454C173.801 187.929 171.984 192.204 168.524 199.279C168.972 199.845 169.03 200.391 168.694 200.917Z" fill="#F2BA95"/>
<path fill-rule="evenodd" clip-rule="evenodd" d="M149.247 188.958C149.24 189.149 149.377 189.309 149.554 189.317C149.734 189.325 149.883 189.177 149.89 188.986L150.088 184.071C150.096 183.88 149.958 183.72 149.781 183.708C149.604 183.7 149.453 183.852 149.446 184.044L149.247 188.958ZM166.533 200.5C166.367 200.566 166.277 200.761 166.335 200.941C166.396 201.124 166.577 201.218 166.747 201.155C168.401 200.527 168.82 199.412 168.82 199.408C168.888 199.232 168.809 199.029 168.643 198.959C168.477 198.885 168.289 198.975 168.224 199.15C168.224 199.154 167.913 199.977 166.533 200.5ZM168.372 200.917C168.372 200.925 168.368 204.268 165.522 206.078C165.37 206.175 165.32 206.39 165.407 206.554C165.497 206.717 165.695 206.772 165.847 206.678C169.011 204.666 169.015 200.925 169.015 200.917C169.015 200.722 168.87 200.566 168.693 200.566C168.516 200.566 168.372 200.722 168.372 200.917ZM160.353 196.564C159.985 197.758 159.227 200.921 159.223 200.929C159.183 201.116 159.288 201.303 159.461 201.346C159.635 201.393 159.808 201.28 159.848 201.093C159.851 201.081 160.603 197.957 160.964 196.783C161.321 195.632 162.037 194.201 162.04 194.197C162.123 194.029 162.062 193.818 161.907 193.729C161.751 193.639 161.556 193.701 161.473 193.869C161.47 193.873 160.729 195.351 160.353 196.564ZM158.598 192.168L158.681 194.353C158.688 194.544 158.84 194.692 159.017 194.688C159.194 194.68 159.331 194.516 159.324 194.325L159.241 192.141C159.234 191.95 159.086 191.798 158.905 191.806C158.728 191.813 158.591 191.977 158.598 192.168ZM151.508 186.013L150.215 188.529V188.533H150.211C150.211 188.537 149.485 189.879 149.843 191.915C150.175 193.807 150.287 195.086 150.287 195.09C150.298 195.281 150.453 195.425 150.63 195.414C150.807 195.398 150.941 195.234 150.93 195.043C150.93 195.039 150.814 193.717 150.475 191.79C150.161 190.004 150.778 188.865 150.778 188.865V188.861L152.068 186.349C152.154 186.181 152.1 185.97 151.945 185.877C151.79 185.783 151.595 185.846 151.508 186.013Z" fill="#EE8B83"/>
<path d="M227.054 64.4454C226.928 72.7964 224.349 78.3703 219.318 81.1709C218.018 70.343 218.223 64.0007 219.932 62.1441C221.64 60.2874 224.017 61.0558 227.054 64.4454Z" fill="#332966"/>
<path fill-rule="evenodd" clip-rule="evenodd" d="M246.533 86.9047L257.38 88.5078C258.167 86.1324 259.572 84.1119 261.364 82.6414C263.777 80.6599 266.89 79.677 270.13 80.1528C273.366 80.6326 276.122 82.4853 277.953 85.087C278.564 85.9568 279.073 86.9086 279.463 87.9266L288.262 89.2216C288.637 89.2801 288.897 89.6506 288.847 90.0524C288.796 90.458 288.453 90.7389 288.077 90.6843L279.958 89.4868C280.359 91.0899 280.478 92.8023 280.254 94.5497C279.813 98.0485 278.098 101.021 275.689 103.002C273.276 104.98 270.162 105.967 266.922 105.487C263.683 105.011 260.93 103.162 259.099 100.557C257.268 97.951 256.354 94.5887 256.795 91.0899C256.845 90.6999 256.91 90.3176 256.993 89.9393L246.555 88.3986C246.537 88.7847 246.504 89.1748 246.454 89.5648C246.013 93.0636 244.298 96.0358 241.885 98.0173C239.476 99.9948 236.362 100.978 233.122 100.502C229.882 100.026 227.13 98.1733 225.299 95.5677C223.464 92.9622 222.554 89.5999 222.995 86.105C223.219 84.3576 223.757 82.7389 224.54 81.3113L216.367 80.106C215.995 80.0514 215.731 79.6809 215.782 79.2752C215.832 78.8735 216.179 78.5887 216.551 78.6433L225.404 79.95C226.032 79.0841 226.758 78.3157 227.564 77.6526C229.976 75.675 233.09 74.6882 236.326 75.1679C239.566 75.6438 242.322 77.4966 244.153 80.1021C245.515 82.0368 246.367 84.3888 246.533 86.9047ZM243.066 80.9953C241.444 78.6901 239.006 77.0519 236.142 76.6306C233.278 76.2055 230.525 77.0792 228.391 78.8305C226.256 80.5819 224.739 83.2108 224.349 86.304C223.959 89.3971 224.764 92.3732 226.386 94.6745C228.008 96.9797 230.442 98.618 233.307 99.0392C236.174 99.4644 238.927 98.5907 241.061 96.8393C243.192 95.088 244.709 92.459 245.099 89.3659C245.493 86.2728 244.688 83.3006 243.066 80.9953ZM276.866 85.9802C275.244 83.675 272.806 82.0368 269.942 81.6155C267.078 81.1943 264.326 82.0641 262.191 83.8154C260.056 85.5668 258.539 88.1957 258.149 91.2928C257.759 94.3859 258.565 97.3581 260.186 99.6633C261.808 101.969 264.242 103.603 267.107 104.028C269.975 104.449 272.727 103.579 274.861 101.828C276.996 100.077 278.509 97.4439 278.903 94.3508C279.293 91.2577 278.484 88.2854 276.866 85.9802Z" fill="white"/>
<path d="M299.639 95.006C300.715 95.162 301.709 94.3429 301.857 93.1845L302.792 85.6876C302.94 84.5292 302.182 83.4526 301.105 83.2966C300.033 83.1367 299.036 83.9558 298.891 85.1182L297.952 92.615C297.808 93.7735 298.566 94.85 299.639 95.006Z" fill="#E32D31"/>
<path d="M292.141 76.7711C293.17 77.3289 293.925 77.8672 294.406 78.3937C295.132 79.1777 298.534 84.1197 299.014 84.9232C299.495 85.7267 300.571 87.5561 300.271 89.9705C300.069 91.5814 299.86 93.2587 299.639 95.0061C299.422 96.7536 299.213 98.4308 299.011 100.042C298.707 102.452 297.219 103.911 296.558 104.547C295.897 105.183 291.4 108.97 290.508 109.52C289.916 109.887 289.053 110.191 287.926 110.433L289.129 93.4693L292.141 76.7711Z" fill="#E95C4D"/>
<path d="M289.158 75.082L291.155 75.3746C291.783 75.4643 292.228 76.0923 292.141 76.771L287.926 110.433C287.843 111.111 287.258 111.591 286.629 111.497L284.632 111.209C284.003 111.115 283.563 110.487 283.646 109.809L287.861 76.1469C287.944 75.4682 288.529 74.9884 289.158 75.082Z" fill="#E32D31"/>
<path d="M287.297 72.1255L289.294 72.4142C289.923 72.5078 290.367 73.1358 290.284 73.8145L285.408 112.75C285.321 113.428 284.74 113.908 284.111 113.818L282.114 113.526C281.486 113.436 281.041 112.804 281.128 112.126L286 73.1904C286.087 72.5117 286.672 72.0319 287.297 72.1255Z" fill="#E95C4D"/>
<path d="M285.296 30.8306C274.511 38.6628 251.709 49.7443 220.914 35.1251C216.948 40.4415 214.344 46.3859 213.116 51.7842C231.587 57.4166 265.579 62.6238 289.656 36.1041C288.417 34.2123 286.951 32.4493 285.296 30.8306Z" fill="#463B77"/>
<path d="M259.07 25.7248C246.067 23.8252 233.527 27.8428 223.8 35.8467C214.07 43.8506 207.149 55.8408 205.394 69.8788L205.105 72.1685C205.025 72.812 204.476 73.2606 203.88 73.1748C203.288 73.089 202.869 72.4961 202.949 71.8525L203.234 69.5668C205.072 54.8813 212.307 42.345 222.478 33.9783C232.653 25.6078 245.764 21.4069 259.363 23.3923C272.958 25.3776 284.567 33.1904 292.314 44.1743C300.065 55.1621 303.955 69.3211 302.117 84.0066L301.832 86.2923C301.748 86.9359 301.2 87.3844 300.607 87.2986C300.011 87.2128 299.592 86.6199 299.672 85.9763L299.961 83.6906C301.716 69.6487 297.996 56.106 290.584 45.6019C283.173 35.0939 272.07 27.6204 259.07 25.7248Z" fill="#BE338C"/>
<path d="M202.916 80.8822C201.844 80.7262 201.085 79.6497 201.23 78.4912L202.169 70.9905C202.313 69.832 203.31 69.0129 204.383 69.1689C205.455 69.3289 206.218 70.4015 206.069 71.5639L205.134 79.0607C204.986 80.2191 203.989 81.0383 202.916 80.8822Z" fill="#E32D31"/>
<path d="M214.633 65.4517C213.503 65.6975 212.643 66.0017 212.047 66.3644C211.155 66.9144 206.662 70.7057 206.001 71.3415C205.34 71.9773 203.848 73.4322 203.548 75.8467C203.346 77.4576 203.137 79.1348 202.916 80.8822C202.7 82.6258 202.49 84.3069 202.288 85.9178C201.984 88.3284 203.064 90.1616 203.545 90.9612C204.025 91.7647 207.427 96.7067 208.15 97.4946C208.634 98.0173 209.389 98.5595 210.418 99.1173L213.43 82.4152L214.633 65.4517Z" fill="#E95C4D"/>
<path d="M217.924 64.6794L215.927 64.3869C215.298 64.2972 214.717 64.7731 214.634 65.4517L210.419 99.1173C210.332 99.7921 210.776 100.424 211.405 100.514L213.402 100.806C214.03 100.9 214.612 100.42 214.699 99.7413L218.914 66.0797C218.997 65.401 218.553 64.7692 217.924 64.6794Z" fill="#E32D31"/>
<path d="M220.445 62.3625L218.447 62.07C217.819 61.9764 217.234 62.4561 217.151 63.1348L212.274 102.074C212.188 102.749 212.632 103.381 213.261 103.47L215.258 103.763C215.886 103.856 216.471 103.377 216.555 102.698L221.431 63.7628C221.517 63.0841 221.073 62.4522 220.445 62.3625Z" fill="#E95C4D"/>
<path d="M258.926 26.8871C251.966 25.873 245.157 26.5829 238.865 28.7126C232.321 30.9281 226.321 34.6843 221.286 39.6302C220.401 40.5039 219.025 40.4337 218.216 39.4781C217.407 38.5224 217.472 37.0363 218.357 36.1626C223.847 30.7682 230.406 26.6687 237.572 24.2426C244.475 21.9062 251.922 21.1221 259.507 22.2299C267.092 23.3376 274.081 26.2279 280.16 30.46C286.474 34.8559 291.787 40.6911 295.753 47.4664C296.392 48.5624 296.089 50.0095 295.074 50.6999C294.055 51.3942 292.715 51.0627 292.076 49.9666C288.439 43.753 283.577 38.4132 277.812 34.3996C272.272 30.5419 265.882 27.9052 258.926 26.8871Z" fill="#E32D31"/>
<path d="M318.378 189.368C318.269 189.001 318.457 188.611 318.797 188.498C319.133 188.381 319.494 188.584 319.602 188.95L327.975 217.335C328.079 217.701 327.892 218.091 327.556 218.204C327.216 218.321 326.855 218.119 326.75 217.756L318.378 189.368Z" fill="#EE8B83"/>
<path d="M176.344 215.704C176.225 215.345 176.394 214.944 176.73 214.815C177.062 214.682 177.431 214.866 177.554 215.228C177.597 215.357 192.781 260.139 190.889 260.72C190.546 260.822 190.192 260.607 190.094 260.237C190 259.87 190.199 259.484 190.542 259.382C191.116 259.203 176.387 215.829 176.344 215.704Z" fill="#EE8B83"/>
<path d="M301.958 145.955C302.102 145.401 302.637 145.077 303.15 145.233C303.663 145.389 303.962 145.967 303.818 146.52C303.796 146.606 295.763 176.882 299.513 190.413C301.058 195.991 302.507 200.465 303.775 203.991C305.642 209.182 307.123 212.338 307.975 213.968C309.142 216.203 314.466 221.801 316.846 224.305C317.348 224.828 317.742 225.241 317.814 225.323C318.193 225.729 318.193 226.392 317.814 226.797C317.438 227.207 316.824 227.207 316.445 226.797C316.116 226.442 315.849 226.162 315.502 225.795C313.064 223.232 307.61 217.498 306.296 214.986C305.411 213.298 303.879 210.033 301.976 204.744C300.679 201.143 299.213 196.615 297.66 191.006C293.748 176.894 301.936 146.045 301.958 145.955ZM186.319 147.909C186.012 147.437 186.121 146.786 186.561 146.458C186.998 146.126 187.601 146.247 187.905 146.719C187.934 146.766 198.354 162.782 200.113 184.648C201.843 206.171 202.555 220.545 202.555 220.588C202.558 220.642 202.555 220.693 202.551 220.748C202.551 220.755 202.356 223.552 199.629 223.357C199.094 223.322 198.69 222.827 198.726 222.249C198.759 221.676 199.217 221.239 199.748 221.274C200.434 221.325 200.59 220.783 200.622 220.595C200.561 219.32 199.842 205.465 198.184 184.824C196.472 163.523 186.348 147.956 186.319 147.909Z" fill="#EFD3C8"/>
<path d="M218.769 196.229C220.022 196.229 221.044 195.125 221.044 193.772C221.044 192.418 220.022 191.314 218.769 191.314C217.515 191.314 216.493 192.418 216.493 193.772C216.493 195.125 217.515 196.229 218.769 196.229Z" fill="#1C2244"/>
<path d="M289.533 196.229C290.786 196.229 291.808 195.125 291.808 193.772C291.808 192.418 290.786 191.314 289.533 191.314C288.28 191.314 287.257 192.418 287.257 193.772C287.257 195.125 288.28 196.229 289.533 196.229Z" fill="#1C2244"/>
<path d="M215.298 176.324C216.551 176.324 217.573 175.221 217.573 173.867C217.573 172.514 216.551 171.41 215.298 171.41C214.045 171.41 213.022 172.514 213.022 173.867C213.022 175.221 214.045 176.324 215.298 176.324Z" fill="#1C2244"/>
<path d="M290.899 178.536C292.152 178.536 293.17 177.432 293.17 176.079C293.17 174.725 292.152 173.621 290.899 173.621C289.645 173.621 288.623 174.725 288.623 176.079C288.623 177.432 289.645 178.536 290.899 178.536Z" fill="#1C2244"/>
<path d="M290.498 193.857C290.451 194.431 289.985 194.86 289.454 194.813C288.923 194.762 288.525 194.259 288.569 193.686L289.934 175.993C289.977 175.416 290.443 174.99 290.978 175.037C291.509 175.084 291.903 175.591 291.859 176.164L290.498 193.857ZM219.73 193.647C219.791 194.22 219.412 194.739 218.881 194.809C218.354 194.875 217.87 194.466 217.808 193.892C217.805 193.853 216.23 179.523 214.68 175.158C214.489 174.624 214.742 174.019 215.24 173.812C215.739 173.61 216.295 173.879 216.486 174.417C218.122 179.024 219.722 193.608 219.73 193.647Z" fill="#342A60"/>
<path d="M221.366 136.867C222.756 137.892 224.385 139.492 226.155 141.984C228.749 145.639 231.681 149.446 234.965 152.508C238.212 155.534 241.809 157.84 245.771 158.554C249.723 159.263 253.32 158.721 256.593 156.81C259.894 154.883 262.885 151.556 265.594 146.715C268.747 141.079 270.47 138.31 271.369 136.96C271.716 137.198 272.08 137.432 272.467 137.654C271.694 138.801 270.051 141.442 266.695 147.433C263.863 152.492 260.71 155.987 257.203 158.035C253.671 160.098 249.799 160.687 245.558 159.923C241.332 159.162 237.533 156.74 234.123 153.561C230.753 150.417 227.77 146.544 225.133 142.827C223.197 140.104 221.51 138.536 220.163 137.635C220.589 137.385 220.987 137.132 221.366 136.867Z" fill="#342A60"/>
<path d="M248.791 161.604C250.015 161.604 251.012 160.527 251.012 159.209C251.012 157.887 250.015 156.814 248.791 156.814C247.57 156.814 246.573 157.887 246.573 159.209C246.573 160.527 247.57 161.604 248.791 161.604Z" fill="#1C2244"/>
<path d="M249.26 159.591C249.784 159.591 250.214 159.127 250.214 158.561C250.214 157.992 249.784 157.528 249.26 157.528C248.733 157.528 248.303 157.992 248.303 158.561C248.303 159.127 248.733 159.591 249.26 159.591Z" fill="#463B77"/>
<path d="M245.435 161.097C246.407 161.097 247.201 160.242 247.201 159.193C247.201 158.144 246.407 157.29 245.435 157.29C244.463 157.29 243.672 158.144 243.672 159.193C243.672 160.242 244.463 161.097 245.435 161.097Z" fill="#1C2244"/>
<path d="M245.807 159.497C246.226 159.497 246.569 159.131 246.569 158.678C246.569 158.226 246.226 157.855 245.807 157.855C245.388 157.855 245.048 158.226 245.048 158.678C245.048 159.131 245.388 159.497 245.807 159.497Z" fill="#463B77"/>
<path d="M242.889 160.168C243.662 160.168 244.294 159.49 244.294 158.655C244.294 157.82 243.662 157.142 242.889 157.142C242.119 157.142 241.487 157.82 241.487 158.655C241.487 159.49 242.119 160.168 242.889 160.168Z" fill="#1C2244"/>
<path d="M243.185 158.897C243.517 158.897 243.788 158.604 243.788 158.245C243.788 157.887 243.517 157.594 243.185 157.594C242.853 157.594 242.582 157.887 242.582 158.245C242.582 158.604 242.853 158.897 243.185 158.897Z" fill="#463B77"/>
<path d="M252.349 161.128C253.32 161.128 254.111 160.274 254.111 159.224C254.111 158.175 253.32 157.317 252.349 157.317C251.377 157.317 250.586 158.175 250.586 159.224C250.586 160.274 251.377 161.128 252.349 161.128Z" fill="#1C2244"/>
<path d="M252.721 159.529C253.14 159.529 253.479 159.158 253.479 158.71C253.479 158.253 253.14 157.887 252.721 157.887C252.298 157.887 251.958 158.253 251.958 158.71C251.958 159.158 252.298 159.529 252.721 159.529Z" fill="#463B77"/>
<path d="M255.123 160.047C255.892 160.047 256.524 159.365 256.524 158.534C256.524 157.699 255.892 157.021 255.123 157.021C254.35 157.021 253.718 157.699 253.718 158.534C253.718 159.365 254.35 160.047 255.123 160.047Z" fill="#1C2244"/>
<path d="M255.415 158.776C255.747 158.776 256.021 158.483 256.021 158.121C256.021 157.762 255.747 157.469 255.415 157.469C255.083 157.469 254.812 157.762 254.812 158.121C254.812 158.483 255.083 158.776 255.415 158.776Z" fill="#463B77"/>
<path fill-rule="evenodd" clip-rule="evenodd" d="M237.568 206.873H272.813C273.756 206.873 274.63 207.287 275.287 207.954C275.938 208.625 276.371 209.545 276.425 210.563L277.415 229.337C277.44 229.797 277.451 230.226 277.451 230.62C277.451 236.318 275.439 241.467 272.113 245.278C268.786 249.089 264.141 251.554 258.882 251.878C258.463 251.901 258.07 251.917 257.698 251.917H257.221C251.5 251.917 246.165 249.389 242.181 245.317C238.197 241.249 235.564 235.632 235.235 229.45L234.245 210.684C234.238 210.583 234.238 210.513 234.238 210.466C234.238 209.51 234.578 208.64 235.141 207.997C235.701 207.353 236.485 206.936 237.37 206.881C237.46 206.873 237.525 206.873 237.568 206.873ZM272.813 208.96H237.482C237.106 208.984 236.781 209.155 236.546 209.424C236.311 209.693 236.171 210.056 236.171 210.466V210.563L237.164 229.337C237.46 234.969 239.866 240.09 243.503 243.807C247.14 247.521 252.005 249.826 257.221 249.826H257.698C258.088 249.826 258.449 249.814 258.778 249.795C263.524 249.502 267.71 247.283 270.708 243.85C273.705 240.418 275.519 235.768 275.519 230.62C275.519 230.202 275.508 229.812 275.49 229.45L274.496 210.676C274.471 210.208 274.269 209.779 273.962 209.467C273.659 209.155 273.25 208.96 272.813 208.96Z" fill="#1C4298"/>
<path d="M235.503 217.268C234.972 217.268 234.539 216.8 234.539 216.223C234.539 215.646 234.972 215.178 235.503 215.178H275.758C276.292 215.178 276.726 215.646 276.726 216.223C276.726 216.8 276.292 217.268 275.758 217.268H235.503Z" fill="#1C4298"/>
<path d="M188.259 92.5916C188.389 92.5526 188.523 92.5292 188.657 92.5214H188.707L187.093 85.7111C187.049 85.5394 187.075 85.3561 187.147 85.2001C187.223 85.048 187.345 84.9193 187.497 84.8568L194.562 81.9236C194.587 81.9119 194.609 81.9041 194.631 81.9002C194.771 81.8612 194.916 81.8807 195.039 81.947C195.162 82.0173 195.259 82.1304 195.313 82.2825C195.32 82.3059 195.328 82.3332 195.335 82.3566L197.52 91.5697C197.668 92.182 197.567 92.8022 197.293 93.3093C197.014 93.8164 196.559 94.2064 195.989 94.3624C195.418 94.5224 194.844 94.417 194.378 94.1167C193.908 93.8164 193.547 93.3249 193.399 92.7086C193.254 92.0962 193.352 91.476 193.63 90.969C193.908 90.4619 194.363 90.0719 194.93 89.9158C195.064 89.8768 195.198 89.8534 195.331 89.8456L195.382 89.8417L194.555 86.3663L189.476 88.4726L190.845 94.2454C190.993 94.8578 190.892 95.478 190.618 95.9851C190.34 96.4921 189.885 96.8822 189.314 97.0421C188.747 97.1981 188.173 97.0928 187.703 96.7925C187.233 96.4921 186.872 96.0007 186.724 95.3844C186.58 94.772 186.677 94.1518 186.955 93.6447C187.233 93.1377 187.689 92.7476 188.259 92.5916Z" fill="white"/>
<path d="M307.188 71.9149C307.325 71.9149 307.459 71.9305 307.593 71.9578L307.639 71.9695V64.9368C307.639 64.7574 307.704 64.5897 307.813 64.461C307.918 64.3322 308.066 64.2386 308.232 64.2191L315.748 63.2752C315.774 63.2674 315.799 63.2674 315.82 63.2674C315.969 63.2674 316.102 63.3259 316.203 63.4273C316.304 63.5248 316.373 63.6613 316.391 63.8213C316.395 63.8486 316.395 63.8759 316.395 63.8993V73.4088C316.395 74.0446 316.156 74.618 315.774 75.0353C315.387 75.4527 314.856 75.7062 314.271 75.7062C313.682 75.7062 313.151 75.4488 312.765 75.0353C312.382 74.618 312.14 74.0446 312.14 73.4088C312.14 72.7769 312.378 72.2035 312.765 71.7862C313.151 71.3688 313.682 71.1153 314.271 71.1153C314.405 71.1153 314.542 71.127 314.672 71.1543L314.722 71.166V67.5736L309.315 68.2562V74.2123C309.315 74.8481 309.077 75.4215 308.694 75.8388C308.308 76.2523 307.777 76.5097 307.188 76.5097C306.603 76.5097 306.068 76.2523 305.685 75.8388C305.299 75.4215 305.061 74.8481 305.061 74.2123C305.061 73.5765 305.299 73.0031 305.685 72.5897C306.068 72.1723 306.603 71.9149 307.188 71.9149Z" fill="white"/>
<path d="M192.955 71.2595C193.092 71.2595 193.225 71.2751 193.359 71.3024L193.406 71.3141V64.2854C193.406 64.1059 193.471 63.9343 193.579 63.8056C193.684 63.6769 193.832 63.5872 193.998 63.5638L197.766 63.0918C197.791 63.0879 197.813 63.0879 197.834 63.0879C197.982 63.0879 198.116 63.1464 198.221 63.2439C198.322 63.3453 198.39 63.4818 198.409 63.6379C198.412 63.6652 198.412 63.6925 198.412 63.7159V65.9899C198.412 66.4502 198.199 66.6998 197.773 66.7388L196.736 66.8402L195.082 67.0469V73.5569C195.082 74.1927 194.844 74.7661 194.461 75.1835C194.074 75.6008 193.543 75.8543 192.955 75.8543C192.366 75.8543 191.835 75.6008 191.452 75.1835C191.066 74.7661 190.827 74.1927 190.827 73.5569C190.827 72.925 191.066 72.3478 191.452 71.9343C191.835 71.5208 192.366 71.2595 192.955 71.2595Z" fill="white"/>
<path d="M301.777 42.5517C301.914 42.5517 302.048 42.5673 302.181 42.5946L302.228 42.6063V35.5736C302.228 35.3981 302.293 35.2265 302.402 35.0978C302.506 34.969 302.655 34.8793 302.821 34.8559L306.588 34.384C306.613 34.3801 306.635 34.3801 306.657 34.3801C306.805 34.3801 306.938 34.4347 307.039 34.5361C307.144 34.6336 307.213 34.7701 307.231 34.93C307.234 34.9573 307.234 34.9846 307.234 35.0081V37.2782C307.234 37.7423 307.021 37.992 306.595 38.031L305.559 38.1324L303.904 38.3391V44.8491C303.904 45.4849 303.666 46.0583 303.283 46.4756C302.897 46.8891 302.366 47.1465 301.777 47.1465C301.188 47.1465 300.657 46.8891 300.274 46.4756C299.888 46.0583 299.649 45.4849 299.649 44.8491C299.649 44.2133 299.888 43.6399 300.274 43.2265C300.657 42.8091 301.188 42.5517 301.777 42.5517Z" fill="white"/>
<path d="M149.341 166.55C149.597 166.815 149.604 167.256 149.359 167.533C149.109 167.81 148.705 167.817 148.448 167.552L132.809 151.349C132.545 151.076 132.198 150.823 131.855 150.643C131.541 150.476 131.245 150.374 131.043 150.374H129.258H128.601H120.806C120.453 150.374 120.164 150.062 120.164 149.676C120.164 149.294 120.453 148.982 120.806 148.982H128.601H129.258H131.043C131.433 148.982 131.935 149.142 132.419 149.399C132.877 149.641 133.343 149.976 133.701 150.347L149.341 166.55Z" fill="white"/>
<path fill-rule="evenodd" clip-rule="evenodd" d="M206.207 96.0202C205.939 96.6014 205.658 97.1982 205.361 97.8067C204.961 98.6375 204.563 99.4332 204.17 100.186C200.771 106.723 198.571 115.464 199.03 123.577C199.405 130.228 201.573 136.445 206.347 140.635C206.622 140.876 206.665 141.317 206.441 141.614C206.217 141.91 205.813 141.957 205.535 141.715C200.449 137.249 198.141 130.673 197.744 123.659C197.271 115.277 199.539 106.251 203.046 99.5073C203.472 98.6843 203.866 97.9042 204.224 97.167C204.596 96.3908 204.968 95.5951 205.333 94.7838C204.296 93.2977 203.259 91.7686 203.003 91.3396C202.746 90.9144 202.331 90.2084 202.017 89.284C201.695 88.3362 201.482 87.1621 201.648 85.8242L202.28 80.7886L202.909 75.7569C203.079 74.4152 203.574 73.3464 204.115 72.5234C204.654 71.7121 205.224 71.1582 205.575 70.8228C205.838 70.5653 206.246 70.5926 206.481 70.8774C206.72 71.166 206.694 71.6068 206.431 71.8603C206.12 72.1606 205.611 72.6521 205.163 73.3308C204.722 73.9978 204.321 74.8637 204.184 75.9403L203.555 80.972L202.923 86.0076C202.79 87.0802 202.963 88.0319 203.227 88.8042C203.494 89.596 203.859 90.2123 204.083 90.5868C204.354 91.0353 205.589 92.8569 206.73 94.4756C207.557 95.6458 208.323 96.695 208.609 97.0032C208.858 97.2762 208.858 97.717 208.605 97.9861C208.352 98.2591 207.944 98.2552 207.695 97.9861C207.431 97.6974 206.86 96.9329 206.207 96.0202ZM145.906 199.018C145.545 198.511 145.256 198.101 145.054 197.836C144.396 196.95 143.565 194.591 142.839 192.067C141.89 188.763 141.091 185.101 141.091 184.118C141.091 183.279 141.091 182.499 141.221 181.637C141.351 180.767 141.611 179.862 142.121 178.817C143.071 176.89 144.956 171.983 144.96 171.968C144.97 171.94 144.985 171.913 144.999 171.886C145.144 171.589 146.112 169.616 146.726 169.085C146.878 168.952 147.347 168.34 147.893 167.626C148.868 166.355 150.07 164.779 150.731 164.447C151.053 164.283 151.436 164.436 151.584 164.783C151.736 165.13 151.595 165.543 151.277 165.703C150.887 165.902 149.778 167.345 148.886 168.512C148.301 169.276 147.802 169.931 147.528 170.165C147.098 170.536 146.253 172.287 146.141 172.518C146.007 172.869 144.187 177.588 143.262 179.472C142.818 180.369 142.597 181.134 142.493 181.855C142.381 182.585 142.381 183.322 142.381 184.118C142.381 184.999 143.15 188.471 144.068 191.657C144.754 194.041 145.509 196.229 146.058 196.962C146.274 197.251 146.567 197.66 146.928 198.171C148.983 201.066 153.339 207.197 157.706 210.704C157.858 210.813 157.966 210.989 157.991 211.203C158.009 211.379 164.836 272.898 166.292 280.024C166.974 283.371 168.47 286.331 170.384 288.636C172.41 291.082 174.902 292.794 177.384 293.45C177.727 293.539 177.94 293.914 177.857 294.284C177.774 294.659 177.423 294.889 177.08 294.799C174.35 294.078 171.626 292.217 169.427 289.561C167.368 287.084 165.761 283.909 165.031 280.324C163.622 273.417 157.247 216.192 156.742 211.659C152.299 208.016 147.965 201.916 145.906 199.018ZM161.354 194.575C161.076 194.337 161.033 193.896 161.253 193.6L166.815 186.142C166.826 186.126 166.837 186.111 166.848 186.095C167.108 185.779 170.156 182.086 171.68 182.121C172.034 182.128 172.316 182.448 172.309 182.831C172.302 183.213 172.009 183.517 171.655 183.509C170.705 183.486 168.054 186.719 167.816 187.012L162.257 194.47C162.033 194.766 161.629 194.817 161.354 194.575ZM152.353 186.513C152.18 186.852 151.79 186.973 151.479 186.79C151.165 186.606 151.053 186.181 151.223 185.846L155.521 177.385C155.546 177.335 155.579 177.288 155.611 177.249C155.752 177.058 156.539 175.981 157.381 174.807C157.731 174.316 158.262 173.602 158.804 172.876C159.675 171.718 160.624 170.474 160.895 170.119C161.123 169.826 161.527 169.787 161.802 170.033C162.073 170.275 162.113 170.715 161.885 171.008C161.632 171.332 160.715 172.537 159.805 173.75C159.266 174.468 158.743 175.17 158.4 175.654C157.605 176.765 156.828 177.826 156.626 178.095L152.353 186.513ZM237.258 130.263C237.543 130.485 237.608 130.922 237.399 131.23C237.19 131.542 236.789 131.609 236.503 131.382C232.649 128.348 222.254 115.277 222.222 115.238C222.2 115.207 222.178 115.176 222.16 115.148C221.832 114.626 218.14 108.607 217.122 99.3123C217.078 98.9339 217.331 98.5868 217.685 98.54C218.039 98.4971 218.361 98.7701 218.4 99.1485C219.383 108.127 222.908 113.865 223.215 114.353C223.645 114.891 233.614 127.388 237.258 130.263ZM218.693 39.01C218.931 39.2947 218.913 39.7355 218.65 39.9929C218.386 40.2504 217.981 40.2309 217.739 39.9461C217.219 39.3259 216.977 38.538 217.01 37.7579C217.042 36.9778 217.349 36.2133 217.924 35.6477C220.708 32.9135 223.771 30.499 227.055 28.4668C230.309 26.4464 233.773 24.8003 237.381 23.5795C240.928 22.3781 244.616 21.5824 248.39 21.2353C252.052 20.8998 255.805 20.9856 259.594 21.5395C263.379 22.0934 267.02 23.0841 270.473 24.461C274.027 25.8769 277.386 27.7023 280.507 29.8749C280.807 30.0817 280.893 30.5146 280.702 30.8384C280.511 31.1582 280.11 31.2518 279.814 31.0451C276.769 28.9271 273.493 27.1485 270.029 25.7677C266.659 24.422 263.108 23.4547 259.421 22.9164C255.737 22.3781 252.074 22.2923 248.495 22.6238C244.814 22.9593 241.22 23.7355 237.764 24.9057C234.235 26.0992 230.858 27.7023 227.694 29.6682C224.505 31.6458 221.517 34.0017 218.79 36.6775C218.48 36.9856 218.31 37.3991 218.292 37.8164C218.278 38.2416 218.408 38.6745 218.693 39.01Z" fill="white"/>
<path d="M342.209 29.2626H409.203C410.499 29.2626 411.557 30.4094 411.557 31.8097V43.9013C411.557 45.3016 410.499 46.4484 409.203 46.4484H342.209C340.916 46.4484 339.854 45.3016 339.854 43.9013V31.8097C339.854 30.4094 340.916 29.2626 342.209 29.2626Z" fill="#E95C4D"/>
<path d="M344.788 34.735C344.788 34.1578 345.222 33.6897 345.756 33.6897C346.291 33.6897 346.724 34.1578 346.724 34.735V40.9759C346.724 41.5532 346.291 42.0212 345.756 42.0212C345.222 42.0212 344.788 41.5532 344.788 40.9759V34.735ZM393.065 34.735C393.065 34.1578 393.498 33.6897 394.033 33.6897C394.567 33.6897 395.001 34.1578 395.001 34.735V40.9759C395.001 41.5532 394.567 42.0212 394.033 42.0212C393.498 42.0212 393.065 41.5532 393.065 40.9759V34.735ZM385.021 34.735C385.021 34.1578 385.451 33.6897 385.985 33.6897C386.52 33.6897 386.953 34.1578 386.953 34.735V40.9759C386.953 41.5532 386.52 42.0212 385.985 42.0212C385.451 42.0212 385.021 41.5532 385.021 40.9759V34.735ZM376.974 34.735C376.974 34.1578 377.407 33.6897 377.942 33.6897C378.476 33.6897 378.91 34.1578 378.91 34.735V40.9759C378.91 41.5532 378.476 42.0212 377.942 42.0212C377.407 42.0212 376.974 41.5532 376.974 40.9759V34.735ZM368.926 34.735C368.926 34.1578 369.36 33.6897 369.894 33.6897C370.429 33.6897 370.862 34.1578 370.862 34.735V40.9759C370.862 41.5532 370.429 42.0212 369.894 42.0212C369.36 42.0212 368.926 41.5532 368.926 40.9759V34.735ZM360.883 34.735C360.883 34.1578 361.313 33.6897 361.847 33.6897C362.382 33.6897 362.815 34.1578 362.815 34.735V40.9759C362.815 41.5532 362.382 42.0212 361.847 42.0212C361.313 42.0212 360.883 41.5532 360.883 40.9759V34.735ZM352.835 34.735C352.835 34.1578 353.269 33.6897 353.803 33.6897C354.338 33.6897 354.771 34.1578 354.771 34.735V40.9759C354.771 41.5532 354.338 42.0212 353.803 42.0212C353.269 42.0212 352.835 41.5532 352.835 40.9759V34.735Z" fill="white"/>
<path d="M403.293 40.7106C404.749 40.7106 405.937 39.4274 405.937 37.8554C405.937 36.2835 404.749 35.0002 403.293 35.0002C401.834 35.0002 400.646 36.2835 400.646 37.8554C400.646 39.4274 401.834 40.7106 403.293 40.7106Z" fill="white"/>
<path d="M290.805 330.485H325.811V325.481H292.704C291.978 325.481 290.96 326.608 290.44 327.981C289.916 329.358 290.082 330.485 290.805 330.485Z" fill="#183784"/>
<path d="M340.706 245.005H449.641C450.631 245.005 451.237 245.879 450.995 246.947L433.456 323.542C433.21 324.607 432.203 325.481 431.213 325.481H322.278C321.289 325.481 320.682 324.607 320.924 323.542L338.463 246.947C338.709 245.879 339.716 245.005 340.706 245.005Z" fill="#3D69B1"/>
<path fill-rule="evenodd" clip-rule="evenodd" d="M394.831 271.458C396.521 272.379 397.883 273.744 398.833 275.429L450.389 245.208C450.179 245.079 449.927 245.005 449.641 245.005H439.958L394.831 271.458ZM371.978 285.243C372.011 285.091 372.05 284.939 372.087 284.787L323.243 313.42L321.574 320.714L371.762 291.297C371.433 289.444 371.483 287.396 371.978 285.243ZM449.298 254.362L400.296 283.086C400.227 283.792 400.111 284.51 399.942 285.243C398.034 293.586 390.226 300.346 382.503 300.346C379.603 300.346 377.125 299.39 375.265 297.756L327.967 325.481H349.519L445.954 268.954L449.298 254.362Z" fill="#5C7EBE"/>
<path d="M320.383 330.485H430.282C431.005 330.485 432.023 329.358 432.547 327.981C433.067 326.608 432.901 325.481 432.178 325.481H322.279C321.557 325.481 320.538 326.608 320.015 327.981C319.494 329.358 319.661 330.485 320.383 330.485Z" fill="#385FAA"/>
<path d="M333.371 322.454H341.689C342.09 322.454 342.18 323.074 341.891 323.831L340.638 327.135C340.353 327.888 339.793 328.508 339.395 328.508H331.074C330.676 328.508 330.586 327.888 330.875 327.135L332.128 323.831C332.414 323.074 332.973 322.454 333.371 322.454Z" fill="#183784"/>
<path d="M415.065 322.454H423.383C423.78 322.454 423.871 323.074 423.585 323.831L422.332 327.135C422.047 327.888 421.483 328.508 421.086 328.508H412.768C412.37 328.508 412.28 327.888 412.565 327.135L413.819 323.831C414.108 323.074 414.668 322.454 415.065 322.454Z" fill="#183784"/>
<path d="M368.619 326.834H369.24C369.36 326.834 369.389 327.026 369.302 327.256L368.749 328.707C368.663 328.941 368.489 329.132 368.366 329.132H367.749C367.626 329.132 367.597 328.941 367.684 328.707L368.236 327.256C368.323 327.026 368.496 326.834 368.619 326.834ZM398.006 326.834H398.623C398.746 326.834 398.775 327.026 398.688 327.256L398.136 328.707C398.049 328.941 397.876 329.132 397.753 329.132H397.132C397.012 329.132 396.983 328.941 397.07 328.707L397.623 327.256C397.709 327.026 397.883 326.834 398.006 326.834ZM395.907 326.834H396.525C396.648 326.834 396.676 327.026 396.59 327.256L396.037 328.707C395.95 328.941 395.777 329.132 395.654 329.132H395.033C394.914 329.132 394.885 328.941 394.972 328.707L395.524 327.256C395.611 327.026 395.784 326.834 395.907 326.834ZM393.809 326.834H394.426C394.549 326.834 394.578 327.026 394.488 327.256L393.939 328.707C393.852 328.941 393.679 329.132 393.556 329.132H392.935C392.812 329.132 392.786 328.941 392.873 328.707L393.422 327.256C393.512 327.026 393.686 326.834 393.809 326.834ZM391.707 326.834H392.328C392.451 326.834 392.479 327.026 392.389 327.256L391.84 328.707C391.75 328.941 391.58 329.132 391.457 329.132H390.836C390.713 329.132 390.684 328.941 390.775 328.707L391.324 327.256C391.414 327.026 391.584 326.834 391.707 326.834ZM389.608 326.834H390.229C390.352 326.834 390.381 327.026 390.291 327.256L389.742 328.707C389.651 328.941 389.482 329.132 389.359 329.132H388.738C388.615 329.132 388.586 328.941 388.676 328.707L389.225 327.256C389.312 327.026 389.485 326.834 389.608 326.834ZM387.509 326.834H388.131C388.254 326.834 388.279 327.026 388.192 327.256L387.643 328.707C387.553 328.941 387.379 329.132 387.257 329.132H386.639C386.516 329.132 386.487 328.941 386.578 328.707L387.127 327.256C387.213 327.026 387.387 326.834 387.509 326.834ZM385.411 326.834H386.032C386.155 326.834 386.18 327.026 386.094 327.256L385.545 328.707C385.454 328.941 385.281 329.132 385.162 329.132H384.541C384.418 329.132 384.389 328.941 384.479 328.707L385.028 327.256C385.115 327.026 385.288 326.834 385.411 326.834ZM383.312 326.834H383.93C384.053 326.834 384.082 327.026 383.995 327.256L383.446 328.707C383.356 328.941 383.182 329.132 383.06 329.132H382.438C382.319 329.132 382.29 328.941 382.377 328.707L382.93 327.256C383.016 327.026 383.19 326.834 383.312 326.834ZM381.214 326.834H381.832C381.954 326.834 381.983 327.026 381.897 327.256L381.344 328.707C381.257 328.941 381.084 329.132 380.961 329.132H380.343C380.221 329.132 380.192 328.941 380.278 328.707L380.831 327.256C380.918 327.026 381.091 326.834 381.214 326.834ZM379.115 326.834H379.733C379.856 326.834 379.885 327.026 379.794 327.256L379.245 328.707C379.159 328.941 378.985 329.132 378.863 329.132H378.241C378.119 329.132 378.093 328.941 378.18 328.707L378.729 327.256C378.819 327.026 378.993 326.834 379.115 326.834ZM377.013 326.834H377.635C377.757 326.834 377.786 327.026 377.696 327.256L377.147 328.707C377.06 328.941 376.887 329.132 376.764 329.132H376.143C376.02 329.132 375.991 328.941 376.081 328.707L376.63 327.256C376.721 327.026 376.891 326.834 377.013 326.834ZM374.915 326.834H375.536C375.659 326.834 375.688 327.026 375.597 327.256L375.048 328.707C374.958 328.941 374.788 329.132 374.666 329.132H374.044C373.922 329.132 373.893 328.941 373.983 328.707L374.532 327.256C374.622 327.026 374.792 326.834 374.915 326.834ZM372.816 326.834H373.438C373.56 326.834 373.589 327.026 373.499 327.256L372.95 328.707C372.86 328.941 372.69 329.132 372.567 329.132H371.946C371.823 329.132 371.794 328.941 371.884 328.707L372.433 327.256C372.52 327.026 372.693 326.834 372.816 326.834ZM370.718 326.834H371.339C371.462 326.834 371.487 327.026 371.4 327.256L370.851 328.707C370.761 328.941 370.591 329.132 370.469 329.132H369.847C369.724 329.132 369.696 328.941 369.786 328.707L370.335 327.256C370.422 327.026 370.595 326.834 370.718 326.834Z" fill="#1C2244"/>
<path fill-rule="evenodd" clip-rule="evenodd" d="M388.583 273.791C394.441 273.791 398.013 278.92 396.565 285.243C395.117 291.57 389.197 296.695 383.338 296.695C377.48 296.695 373.907 291.57 375.356 285.243C376.804 278.92 382.724 273.791 388.583 273.791ZM387.669 277.777C383.851 277.777 379.99 281.12 379.044 285.243C378.101 289.37 380.431 292.712 384.252 292.712C388.07 292.712 391.931 289.37 392.874 285.243C393.82 281.12 391.49 277.777 387.669 277.777Z" fill="#183784"/>
<path d="M301.897 326.834H302.518C302.641 326.834 302.67 327.026 302.579 327.256L302.03 328.707C301.94 328.941 301.77 329.132 301.647 329.132H301.026C300.903 329.132 300.878 328.941 300.965 328.707L301.514 327.256C301.604 327.026 301.774 326.834 301.897 326.834ZM316.59 326.834H317.211C317.334 326.834 317.363 327.026 317.272 327.256L316.723 328.707C316.633 328.941 316.463 329.132 316.341 329.132H315.719C315.597 329.132 315.571 328.941 315.658 328.707L316.207 327.256C316.297 327.026 316.467 326.834 316.59 326.834ZM314.491 326.834H315.113C315.235 326.834 315.264 327.026 315.174 327.256L314.625 328.707C314.535 328.941 314.365 329.132 314.242 329.132H313.621C313.498 329.132 313.469 328.941 313.559 328.707L314.108 327.256C314.199 327.026 314.369 326.834 314.491 326.834ZM312.393 326.834H313.014C313.137 326.834 313.162 327.026 313.075 327.256L312.526 328.707C312.436 328.941 312.266 329.132 312.144 329.132H311.522C311.4 329.132 311.371 328.941 311.461 328.707L312.01 327.256C312.097 327.026 312.27 326.834 312.393 326.834ZM310.294 326.834H310.916C311.038 326.834 311.064 327.026 310.977 327.256L310.424 328.707C310.338 328.941 310.164 329.132 310.041 329.132H309.424C309.301 329.132 309.272 328.941 309.359 328.707L309.911 327.256C309.998 327.026 310.172 326.834 310.294 326.834ZM308.196 326.834H308.817C308.94 326.834 308.965 327.026 308.878 327.256L308.326 328.707C308.239 328.941 308.066 329.132 307.943 329.132H307.325C307.203 329.132 307.174 328.941 307.26 328.707L307.813 327.256C307.9 327.026 308.073 326.834 308.196 326.834ZM306.097 326.834H306.715C306.838 326.834 306.867 327.026 306.78 327.256L306.227 328.707C306.141 328.941 305.967 329.132 305.844 329.132H305.223C305.1 329.132 305.075 328.941 305.162 328.707L305.714 327.256C305.801 327.026 305.974 326.834 306.097 326.834ZM303.999 326.834H304.616C304.739 326.834 304.768 327.026 304.681 327.256L304.129 328.707C304.042 328.941 303.869 329.132 303.746 329.132H303.128C303.002 329.132 302.977 328.941 303.063 328.707L303.616 327.256C303.703 327.026 303.876 326.834 303.999 326.834Z" fill="#1C2244"/>
<path d="M326.353 302.733C326.27 303.107 325.919 303.334 325.576 303.244C325.23 303.15 325.02 302.776 325.103 302.401L337.839 246.78C337.998 246.097 338.391 245.477 338.904 245.036C339.421 244.588 340.064 244.311 340.707 244.311H386.917C387.271 244.311 387.56 244.623 387.56 245.005C387.56 245.391 387.271 245.703 386.917 245.703H340.707C340.36 245.703 340.006 245.859 339.71 246.117C339.41 246.378 339.175 246.733 339.088 247.111L326.353 302.733Z" fill="white"/>
<path d="M2.80989 330.485H476.85C478.352 330.485 479.584 331.811 479.584 333.438C479.584 335.064 478.352 336.395 476.85 336.395H2.80989C1.30734 336.395 0.0756836 335.064 0.0756836 333.438C0.0756836 331.811 1.30734 330.485 2.80989 330.485Z" fill="#1C2244"/>
</g>
<defs>
<clipPath id="clip0">
<rect width="479.33" height="336" fill="white"/>
</clipPath>
</defs>
</svg>
