<svg width="25" height="25" viewBox="0 0 25 25" fill="none" xmlns="http://www.w3.org/2000/svg">
<path d="M12.5 7.49267C9.729 7.49267 7.49268 9.729 7.49268 12.5C7.49268 15.271 9.729 17.5073 12.5 17.5073C15.271 17.5073 17.5073 15.271 17.5073 12.5C17.5073 9.729 15.271 7.49267 12.5 7.49267ZM12.5 15.7544C10.708 15.7544 9.24561 14.292 9.24561 12.5C9.24561 10.708 10.708 9.2456 12.5 9.2456C14.292 9.2456 15.7544 10.708 15.7544 12.5C15.7544 14.292 14.292 15.7544 12.5 15.7544ZM17.7124 6.1206C17.0654 6.1206 16.543 6.64306 16.543 7.29003C16.543 7.93701 17.0654 8.45947 17.7124 8.45947C18.3594 8.45947 18.8818 7.93945 18.8818 7.29003C18.882 7.13641 18.8519 6.98425 18.7932 6.84228C18.7345 6.70031 18.6484 6.57132 18.5397 6.46269C18.4311 6.35406 18.3021 6.26793 18.1602 6.20922C18.0182 6.15052 17.866 6.12041 17.7124 6.1206ZM22.2607 12.5C22.2607 11.1523 22.2729 9.81689 22.1973 8.47167C22.1216 6.90917 21.7651 5.52245 20.6226 4.37988C19.4775 3.23486 18.0933 2.88085 16.5308 2.80517C15.1831 2.72949 13.8477 2.74169 12.5024 2.74169C11.1548 2.74169 9.81934 2.72949 8.47412 2.80517C6.91162 2.88085 5.5249 3.2373 4.38233 4.37988C3.23731 5.5249 2.8833 6.90917 2.80762 8.47167C2.73193 9.81933 2.74414 11.1548 2.74414 12.5C2.74414 13.8452 2.73193 15.1831 2.80762 16.5283C2.8833 18.0908 3.23975 19.4775 4.38233 20.6201C5.52734 21.7651 6.91162 22.1191 8.47412 22.1948C9.82178 22.2705 11.1572 22.2583 12.5024 22.2583C13.8501 22.2583 15.1855 22.2705 16.5308 22.1948C18.0933 22.1191 19.48 21.7627 20.6226 20.6201C21.7676 19.4751 22.1216 18.0908 22.1973 16.5283C22.2754 15.1831 22.2607 13.8477 22.2607 12.5ZM20.1123 18.2568C19.9341 18.7012 19.7192 19.0332 19.375 19.375C19.0308 19.7192 18.7012 19.9341 18.2568 20.1123C16.9727 20.6226 13.9233 20.5078 12.5 20.5078C11.0767 20.5078 8.0249 20.6226 6.74072 20.1147C6.29639 19.9365 5.96436 19.7217 5.62256 19.3774C5.27832 19.0332 5.06348 18.7036 4.88526 18.2593C4.37744 16.9727 4.49219 13.9233 4.49219 12.5C4.49219 11.0767 4.37744 8.0249 4.88526 6.74072C5.06348 6.29638 5.27832 5.96435 5.62256 5.62255C5.9668 5.28076 6.29639 5.06347 6.74072 4.88525C8.0249 4.37744 11.0767 4.49218 12.5 4.49218C13.9233 4.49218 16.9751 4.37744 18.2593 4.88525C18.7036 5.06347 19.0356 5.27831 19.3774 5.62255C19.7217 5.96679 19.9365 6.29638 20.1147 6.74072C20.6226 8.0249 20.5078 11.0767 20.5078 12.5C20.5078 13.9233 20.6226 16.9727 20.1123 18.2568Z" fill="#132943"/>
</svg>
