<svg width="13" height="13" viewBox="0 0 13 13" fill="none" xmlns="http://www.w3.org/2000/svg">
<path fill-rule="evenodd" clip-rule="evenodd" d="M6.56306 0.312744C4.93355 0.312744 4.72904 0.319869 4.08904 0.348995C3.45028 0.378245 3.01428 0.479371 2.63277 0.627747C2.23814 0.780999 1.90339 0.986001 1.56989 1.31963C1.23613 1.65313 1.03113 1.98789 0.877378 2.38239C0.728627 2.76402 0.627376 3.20015 0.598625 3.83866C0.57 4.47866 0.5625 4.68329 0.5625 6.31281C0.5625 7.94232 0.56975 8.1462 0.59875 8.78621C0.628126 9.42496 0.729252 9.86097 0.877503 10.2425C1.03088 10.6371 1.23588 10.9719 1.56951 11.3054C1.90289 11.6391 2.23764 11.8446 2.63202 11.9979C3.01378 12.1462 3.44991 12.2474 4.08854 12.2766C4.72854 12.3057 4.93292 12.3129 6.56231 12.3129C8.19196 12.3129 8.39583 12.3057 9.03584 12.2766C9.6746 12.2474 10.1111 12.1462 10.4929 11.9979C10.8874 11.8446 11.2216 11.6391 11.555 11.3054C11.8887 10.9719 12.0937 10.6371 12.2475 10.2426C12.395 9.86097 12.4963 9.42484 12.5263 8.78633C12.555 8.14633 12.5625 7.94232 12.5625 6.31281C12.5625 4.68329 12.555 4.47879 12.5263 3.83878C12.4963 3.20002 12.395 2.76402 12.2475 2.38252C12.0937 1.98789 11.8887 1.65313 11.555 1.31963C11.2212 0.985876 10.8875 0.780874 10.4925 0.627747C10.11 0.479371 9.67372 0.378245 9.03496 0.348995C8.39496 0.319869 8.19121 0.312744 6.56119 0.312744H6.56306ZM6.02478 1.39399C6.18453 1.39374 6.36279 1.39399 6.56304 1.39399C8.16505 1.39399 8.35493 1.39974 8.98756 1.42849C9.57257 1.45524 9.89007 1.55299 10.1016 1.63512C10.3816 1.74387 10.5812 1.87387 10.7911 2.08387C11.0011 2.29387 11.1311 2.49387 11.2401 2.77388C11.3222 2.98513 11.4201 3.30263 11.4467 3.88764C11.4755 4.52015 11.4817 4.71015 11.4817 6.31142C11.4817 7.91268 11.4755 8.10268 11.4467 8.73519C11.42 9.3202 11.3222 9.6377 11.2401 9.84895C11.1313 10.129 11.0011 10.3283 10.7911 10.5382C10.5811 10.7482 10.3817 10.8782 10.1016 10.987C9.89032 11.0695 9.57257 11.167 8.98756 11.1937C8.35506 11.2225 8.16505 11.2287 6.56304 11.2287C4.9609 11.2287 4.77102 11.2225 4.13851 11.1937C3.55351 11.1667 3.236 11.069 3.02438 10.9868C2.74437 10.8781 2.54437 10.7481 2.33437 10.5381C2.12437 10.3281 1.99436 10.1286 1.88536 9.84845C1.80324 9.6372 1.70536 9.3197 1.67874 8.73469C1.64999 8.10218 1.64424 7.91218 1.64424 6.30991C1.64424 4.70765 1.64999 4.51865 1.67874 3.88614C1.70549 3.30113 1.80324 2.98363 1.88536 2.77213C1.99411 2.49212 2.12437 2.29212 2.33437 2.08212C2.54437 1.87212 2.74437 1.74212 3.02438 1.63312C3.23588 1.55062 3.55351 1.45311 4.13851 1.42624C4.69202 1.40124 4.90652 1.39374 6.02478 1.39249V1.39399ZM9.76582 2.39025C9.36832 2.39025 9.04582 2.71238 9.04582 3.11001C9.04582 3.50751 9.36832 3.83002 9.76582 3.83002C10.1633 3.83002 10.4858 3.50751 10.4858 3.11001C10.4858 2.7125 10.1633 2.39025 9.76582 2.39025ZM6.56307 3.23151C4.86143 3.23151 3.48179 4.61115 3.48179 6.31279C3.48179 8.01443 4.86143 9.39345 6.56307 9.39345C8.26472 9.39345 9.64386 8.01443 9.64386 6.31279C9.64386 4.61115 8.26472 3.23151 6.56307 3.23151ZM6.56305 4.31277C7.66756 4.31277 8.56307 5.20815 8.56307 6.31279C8.56307 7.4173 7.66756 8.31281 6.56305 8.31281C5.45841 8.31281 4.56303 7.4173 4.56303 6.31279C4.56303 5.20815 5.45841 4.31277 6.56305 4.31277Z" fill="white"/>
</svg>
