<svg width="24" height="23" viewBox="0 0 24 23" fill="none" xmlns="http://www.w3.org/2000/svg">
<path opacity="0.1" fill-rule="evenodd" clip-rule="evenodd" d="M0.8125 11.3127C0.8125 5.09954 5.8493 0.0627441 12.0625 0.0627441C18.2757 0.0627441 23.3125 5.09954 23.3125 11.3127C23.3125 17.5259 18.2757 22.5627 12.0625 22.5627C5.8493 22.5627 0.8125 17.5259 0.8125 11.3127Z" fill="white"/>
<path fill-rule="evenodd" clip-rule="evenodd" d="M18.0625 11.3044C18.0625 11.7102 18.0212 12.1154 17.9401 12.5104C17.8609 12.896 17.7437 13.2745 17.5902 13.6364C17.4402 13.9919 17.2542 14.3345 17.0368 14.654C16.8226 14.9714 16.5759 15.2692 16.3049 15.5407C16.0333 15.811 15.7345 16.0571 15.4172 16.2721C15.0967 16.488 14.7536 16.6738 14.3979 16.8245C14.0355 16.9772 13.656 17.0942 13.2708 17.1732C12.8753 17.2546 12.4686 17.2961 12.0622 17.2961C11.6556 17.2961 11.2489 17.2546 10.854 17.1732C10.4681 17.0942 10.0887 16.9772 9.72657 16.8245C9.37089 16.6738 9.0275 16.488 8.70698 16.2721C8.38968 16.0571 8.09084 15.811 7.81983 15.5407C7.54854 15.2692 7.30183 14.9714 7.08737 14.654C6.87115 14.3345 6.6848 13.9919 6.53421 13.6364C6.38067 13.2745 6.2632 12.896 6.1838 12.5104C6.10353 12.1154 6.0625 11.7102 6.0625 11.3044C6.0625 10.8984 6.1035 10.4923 6.18382 10.0982C6.26322 9.71257 6.38069 9.33342 6.53424 8.97211C6.68482 8.61636 6.87117 8.27349 7.08739 7.954C7.30185 7.63629 7.54856 7.33903 7.81985 7.06723C8.09087 6.79689 8.38971 6.55146 8.70701 6.33672C9.02753 6.11992 9.37092 5.93416 9.72659 5.78319C10.0887 5.63015 10.4681 5.51285 10.854 5.43445C11.2489 5.35371 11.6556 5.31274 12.0623 5.31274C12.4686 5.31274 12.8753 5.35371 13.2708 5.43445C13.6561 5.51287 14.0355 5.63017 14.3979 5.78319C14.7536 5.93414 15.0967 6.11992 15.4172 6.33672C15.7345 6.55146 16.0334 6.79689 16.3049 7.06723C16.5759 7.33903 16.8227 7.63629 17.0368 7.954C17.2542 8.27349 17.4402 8.61639 17.5902 8.97211C17.7437 9.33342 17.8609 9.71257 17.9401 10.0982C18.0212 10.4923 18.0625 10.8984 18.0625 11.3044ZM9.87596 6.67637C8.44706 7.35016 7.3806 8.66492 7.04806 10.2494C7.18314 10.2506 9.31841 10.2775 11.7786 9.62481C10.8917 8.0514 9.94423 6.76738 9.87596 6.67637ZM12.2031 10.4127C9.56481 11.2014 7.03312 11.1447 6.94231 11.1412C6.94083 11.1962 6.9382 11.2494 6.9382 11.3044C6.9382 12.6189 7.4348 13.8172 8.25106 14.7233C8.24929 14.7207 9.65154 12.2365 12.4167 11.3436C12.4835 11.3214 12.5515 11.3015 12.6189 11.2822C12.4903 10.9914 12.3499 10.7 12.2031 10.4127ZM15.4462 7.46425C14.5441 6.66993 13.3595 6.18811 12.0622 6.18811C11.6459 6.18811 11.2418 6.23843 10.8548 6.33146C10.9316 6.43446 11.894 7.70943 12.7703 9.31615C14.7038 8.59237 15.4336 7.48296 15.4462 7.46425ZM12.9681 12.13C12.9567 12.1338 12.9453 12.1371 12.9342 12.1411C9.91091 13.1936 8.92362 15.3145 8.91294 15.3377C9.78283 16.0132 10.8739 16.4207 12.0622 16.4207C12.7718 16.4207 13.4477 16.2765 14.0627 16.0153C13.9868 15.5682 13.6892 14.0013 12.9681 12.13ZM14.9255 15.5477C16.0761 14.7725 16.8932 13.5414 17.1211 12.1154C17.0157 12.0814 15.5821 11.6283 13.9282 11.893C14.6003 13.7374 14.8734 15.2394 14.9255 15.5477ZM13.1647 10.0786C13.2837 10.3226 13.3988 10.5709 13.5052 10.8205C13.543 10.91 13.5799 10.9978 13.6159 11.0856C15.3762 10.8644 17.1103 11.2365 17.1845 11.2517C17.1728 10.0388 16.7383 8.92558 16.0193 8.05406C16.0096 8.06778 15.1878 9.25354 13.1647 10.0786Z" fill="white"/>
</svg>
