<svg width="23" height="23" viewBox="0 0 23 23" fill="none" xmlns="http://www.w3.org/2000/svg">
<path opacity="0.1" fill-rule="evenodd" clip-rule="evenodd" d="M0.3125 11.3127C0.3125 5.09954 5.3493 0.0627441 11.5625 0.0627441C17.7757 0.0627441 22.8125 5.09954 22.8125 11.3127C22.8125 17.5259 17.7757 22.5627 11.5625 22.5627C5.3493 22.5627 0.3125 17.5259 0.3125 11.3127Z" fill="white"/>
<path fill-rule="evenodd" clip-rule="evenodd" d="M11.5631 5.31274C9.93355 5.31274 9.72904 5.31987 9.08904 5.34899C8.45028 5.37824 8.01428 5.47937 7.63277 5.62775C7.23814 5.781 6.90339 5.986 6.56989 6.31963C6.23613 6.65313 6.03113 6.98789 5.87738 7.38239C5.72863 7.76402 5.62738 8.20015 5.59863 8.83866C5.57 9.47866 5.5625 9.68329 5.5625 11.3128C5.5625 12.9423 5.56975 13.1462 5.59875 13.7862C5.62813 14.425 5.72925 14.861 5.8775 15.2425C6.03088 15.6371 6.23588 15.9719 6.56951 16.3054C6.90289 16.6391 7.23764 16.8446 7.63202 16.9979C8.01378 17.1462 8.44991 17.2474 9.08854 17.2766C9.72854 17.3057 9.93292 17.3129 11.5623 17.3129C13.192 17.3129 13.3958 17.3057 14.0358 17.2766C14.6746 17.2474 15.1111 17.1462 15.4929 16.9979C15.8874 16.8446 16.2216 16.6391 16.555 16.3054C16.8887 15.9719 17.0937 15.6371 17.2475 15.2426C17.395 14.861 17.4963 14.4248 17.5263 13.7863C17.555 13.1463 17.5625 12.9423 17.5625 11.3128C17.5625 9.68329 17.555 9.47879 17.5263 8.83878C17.4963 8.20002 17.395 7.76402 17.2475 7.38252C17.0937 6.98789 16.8887 6.65313 16.555 6.31963C16.2212 5.98588 15.8875 5.78087 15.4925 5.62775C15.11 5.47937 14.6737 5.37824 14.035 5.34899C13.395 5.31987 13.1912 5.31274 11.5612 5.31274H11.5631ZM11.0248 6.39399C11.1845 6.39374 11.3628 6.39399 11.563 6.39399C13.1651 6.39399 13.3549 6.39974 13.9876 6.42849C14.5726 6.45524 14.8901 6.55299 15.1016 6.63512C15.3816 6.74387 15.5812 6.87387 15.7911 7.08387C16.0011 7.29387 16.1311 7.49387 16.2401 7.77388C16.3222 7.98513 16.4201 8.30263 16.4467 8.88764C16.4755 9.52015 16.4817 9.71015 16.4817 11.3114C16.4817 12.9127 16.4755 13.1027 16.4467 13.7352C16.42 14.3202 16.3222 14.6377 16.2401 14.849C16.1313 15.129 16.0011 15.3283 15.7911 15.5382C15.5811 15.7482 15.3817 15.8782 15.1016 15.987C14.8903 16.0695 14.5726 16.167 13.9876 16.1937C13.3551 16.2225 13.1651 16.2287 11.563 16.2287C9.9609 16.2287 9.77102 16.2225 9.13851 16.1937C8.55351 16.1667 8.236 16.069 8.02438 15.9868C7.74437 15.8781 7.54437 15.7481 7.33437 15.5381C7.12437 15.3281 6.99436 15.1286 6.88536 14.8485C6.80324 14.6372 6.70536 14.3197 6.67874 13.7347C6.64999 13.1022 6.64424 12.9122 6.64424 11.3099C6.64424 9.70765 6.64999 9.51865 6.67874 8.88614C6.70549 8.30113 6.80324 7.98363 6.88536 7.77213C6.99411 7.49212 7.12437 7.29212 7.33437 7.08212C7.54437 6.87212 7.74437 6.74212 8.02438 6.63312C8.23588 6.55062 8.55351 6.45311 9.13851 6.42624C9.69202 6.40124 9.90652 6.39374 11.0248 6.39249V6.39399ZM14.7658 7.39025C14.3683 7.39025 14.0458 7.71238 14.0458 8.11001C14.0458 8.50751 14.3683 8.83002 14.7658 8.83002C15.1633 8.83002 15.4858 8.50751 15.4858 8.11001C15.4858 7.7125 15.1633 7.39025 14.7658 7.39025ZM11.5631 8.23151C9.86143 8.23151 8.48179 9.61115 8.48179 11.3128C8.48179 13.0144 9.86143 14.3934 11.5631 14.3934C13.2647 14.3934 14.6439 13.0144 14.6439 11.3128C14.6439 9.61115 13.2647 8.23151 11.5631 8.23151ZM11.563 9.31277C12.6676 9.31277 13.5631 10.2082 13.5631 11.3128C13.5631 12.4173 12.6676 13.3128 11.563 13.3128C10.4584 13.3128 9.56303 12.4173 9.56303 11.3128C9.56303 10.2082 10.4584 9.31277 11.563 9.31277Z" fill="white"/>
</svg>
