<svg width="22" height="22" viewBox="0 0 22 22" fill="none" xmlns="http://www.w3.org/2000/svg">
<path d="M13 17C16.771 17 18.657 17 19.828 15.828C21 14.657 21 12.771 21 9C21 5.229 21 3.343 19.828 2.172C18.657 1 16.771 1 13 1L9 1C5.229 1 3.343 1 2.172 2.172C1 3.343 1 5.229 1 9C1 12.771 1 14.657 2.172 15.828C2.825 16.482 3.7 16.771 5 16.898" fill="white"/>
<path d="M13 17C16.771 17 18.657 17 19.828 15.828C21 14.657 21 12.771 21 9C21 5.229 21 3.343 19.828 2.172C18.657 1 16.771 1 13 1L9 1C5.229 1 3.343 1 2.172 2.172C1 3.343 1 5.229 1 9C1 12.771 1 14.657 2.172 15.828C2.825 16.482 3.7 16.771 5 16.898" stroke="white" stroke-width="1.66667" stroke-linecap="round" stroke-linejoin="round"/>
<path d="M13 17C11.764 17 10.402 17.5 9.15899 18.145C7.16099 19.182 5.99194 20.831 5.49994 20.5C5.00794 20.17 5.27099 18.015 5.45799 15.966L5.49999 15.5" fill="white"/>
<path d="M13 17C11.764 17 10.402 17.5 9.15899 18.145C7.16099 19.182 5.99194 20.831 5.49994 20.5C5.00794 20.17 5.27099 18.015 5.45799 15.966L5.49999 15.5" stroke="white" stroke-width="1.66667" stroke-linecap="round"/>
<path d="M11 6V9M11 9V12M11 9H14M11 9H8" stroke="#2681E6" stroke-width="1.66667" stroke-linecap="round"/>
</svg>
