<svg width="21" height="17" viewBox="0 0 21 17" fill="none" xmlns="http://www.w3.org/2000/svg">
<path d="M20.6563 2.20851C19.9092 2.53077 19.0962 2.76271 18.2588 2.85304C19.1282 2.33652 19.7793 1.52052 20.0899 0.558116C19.274 1.04344 18.3803 1.38376 17.4482 1.56398C17.0587 1.14754 16.5876 0.815781 16.0642 0.589384C15.5409 0.362986 14.9765 0.246797 14.4063 0.248057C12.0991 0.248057 10.2437 2.11817 10.2437 4.4131C10.2437 4.73536 10.2827 5.05763 10.3462 5.36769C6.89161 5.18702 3.81055 3.53663 1.76221 1.00978C1.38899 1.64726 1.1934 2.37312 1.19581 3.11183C1.19581 4.55714 1.93067 5.83155 3.05128 6.58107C2.39089 6.55506 1.74596 6.37354 1.16895 6.05128V6.10255C1.16895 8.12648 2.59962 9.80372 4.50636 10.1895C4.14834 10.2825 3.78005 10.33 3.41016 10.3311C3.13917 10.3311 2.88282 10.3042 2.62403 10.2676C3.15137 11.918 4.68702 13.1167 6.51563 13.1558C5.08497 14.2764 3.29298 14.9356 1.34718 14.9356C0.998055 14.9356 0.675789 14.9234 0.341316 14.8843C2.18702 16.0684 4.37696 16.752 6.73536 16.752C14.3916 16.752 18.5811 10.4092 18.5811 4.90382C18.5811 4.72316 18.5811 4.54249 18.5689 4.36183C19.3794 3.76857 20.0899 3.0337 20.6563 2.20851Z" fill="#132943"/>
</svg>
