<svg width="23" height="23" viewBox="0 0 23 23" fill="none" xmlns="http://www.w3.org/2000/svg">
<path opacity="0.1" fill-rule="evenodd" clip-rule="evenodd" d="M0.312439 11.3127C0.312439 5.09954 5.34924 0.0627441 11.5624 0.0627441C17.7756 0.0627441 22.8124 5.09954 22.8124 11.3127C22.8124 17.5259 17.7756 22.5627 11.5624 22.5627C5.34924 22.5627 0.312439 17.5259 0.312439 11.3127Z" fill="white"/>
<path fill-rule="evenodd" clip-rule="evenodd" d="M11.2256 9.20689L11.2492 9.59616L10.8557 9.54849C9.42353 9.36577 8.17234 8.74611 7.11 7.70539L6.59064 7.18901L6.45686 7.57034C6.17357 8.42039 6.35456 9.31811 6.94475 9.92188C7.25952 10.2555 7.18869 10.3032 6.64572 10.1046C6.45686 10.041 6.29161 9.99338 6.27587 10.0172C6.22079 10.0728 6.40965 10.7958 6.55916 11.0818C6.76376 11.479 7.18082 11.8683 7.63723 12.0986L8.02282 12.2814L7.56641 12.2893C7.12574 12.2893 7.11 12.2973 7.15722 12.4641C7.3146 12.9805 7.93626 13.5286 8.62875 13.767L9.11663 13.9338L8.6917 14.188C8.06217 14.5535 7.32247 14.76 6.58277 14.7759C6.22866 14.7839 5.9375 14.8156 5.9375 14.8395C5.9375 14.9189 6.89754 15.3638 7.45624 15.5386C9.13237 16.055 11.1233 15.8325 12.6184 14.9507C13.6807 14.3231 14.7431 13.0758 15.2388 11.8683C15.5064 11.2248 15.7739 10.049 15.7739 9.48494C15.7739 9.1195 15.7975 9.07183 16.2382 8.63489C16.4979 8.38067 16.7418 8.10261 16.789 8.02317C16.8677 7.87223 16.8599 7.87223 16.4585 8.00728C15.7897 8.24561 15.6952 8.21384 16.0257 7.85634C16.2697 7.60212 16.5608 7.14134 16.5608 7.00629C16.5608 6.98245 16.4428 7.02218 16.309 7.09368C16.1674 7.17312 15.8526 7.29229 15.6165 7.36379L15.1916 7.49884L14.806 7.23667C14.5936 7.09368 14.2945 6.93479 14.1371 6.88712C13.7358 6.7759 13.122 6.79179 12.76 6.9189C11.7764 7.2764 11.1547 8.19795 11.2256 9.20689Z" fill="white"/>
</svg>
