<svg width="24" height="23" viewBox="0 0 24 23" fill="none" xmlns="http://www.w3.org/2000/svg">
<path opacity="0.1" fill-rule="evenodd" clip-rule="evenodd" d="M0.8125 11.3127C0.8125 5.09954 5.8493 0.0627441 12.0625 0.0627441C18.2757 0.0627441 23.3125 5.09954 23.3125 11.3127C23.3125 17.5259 18.2757 22.5627 12.0625 22.5627C5.8493 22.5627 0.8125 17.5259 0.8125 11.3127Z" fill="white"/>
<path fill-rule="evenodd" clip-rule="evenodd" d="M16.7508 7.44524C17.2671 7.58693 17.6737 8.00441 17.8117 8.53457C18.0625 9.49542 18.0625 11.5002 18.0625 11.5002C18.0625 11.5002 18.0625 13.505 17.8117 14.4659C17.6737 14.9961 17.2671 15.4136 16.7508 15.5553C15.815 15.8127 12.0625 15.8127 12.0625 15.8127C12.0625 15.8127 8.30998 15.8127 7.37418 15.5553C6.85784 15.4136 6.4512 14.9961 6.3132 14.4659C6.0625 13.505 6.0625 11.5002 6.0625 11.5002C6.0625 11.5002 6.0625 9.49542 6.3132 8.53457C6.4512 8.00441 6.85784 7.58693 7.37418 7.44524C8.30998 7.18774 12.0625 7.18774 12.0625 7.18774C12.0625 7.18774 15.815 7.18774 16.7508 7.44524ZM10.9375 9.8127V13.5627L13.9375 11.6878L10.9375 9.8127Z" fill="white"/>
</svg>
